<?xml version="1.0" encoding="UTF-8"?>
<svg id="Ausgang" xmlns="http://www.w3.org/2000/svg" viewBox="0 0 149.99 150">
  <defs>
    <style>
      .cls-1 {
        fill: #9e9e9e;
      }
    </style>
  </defs>
  <g id="Ausgang-2" data-name="Ausgang">
    <path class="cls-1" d="M81.82,150H20.45c-.67,0-1.34-.03-2-.1s-1.33-.16-1.99-.29-1.31-.29-1.95-.49c-.64-.19-1.27-.42-1.89-.68-.62-.26-1.22-.54-1.81-.86-.59-.32-1.16-.66-1.72-1.03-.56-.37-1.09-.77-1.61-1.2-.52-.43-1.01-.87-1.49-1.35-.47-.47-.92-.97-1.35-1.49-.42-.52-.82-1.06-1.2-1.61-.37-.56-.72-1.13-1.03-1.72-.32-.59-.6-1.2-.86-1.81-.26-.62-.48-1.25-.68-1.89-.19-.64-.36-1.29-.49-1.95-.13-.66-.23-1.32-.29-1.99-.07-.67-.1-1.33-.1-2V20.45c0-.67.03-1.34.1-2,.07-.67.16-1.33.29-1.99.13-.66.29-1.31.49-1.95.19-.64.42-1.27.68-1.89.26-.62.54-1.22.86-1.81.32-.59.66-1.16,1.03-1.72s.77-1.09,1.2-1.61c.43-.52.87-1.01,1.35-1.49.47-.47.97-.92,1.49-1.35s1.06-.82,1.61-1.2c.56-.37,1.13-.72,1.72-1.03.59-.32,1.2-.6,1.81-.86.62-.26,1.25-.48,1.89-.68.64-.19,1.29-.36,1.95-.49.66-.13,1.32-.23,1.99-.29.67-.07,1.33-.1,2-.1h61.36c.67,0,1.34.03,2,.1.67.07,1.33.16,1.99.29.66.13,1.31.29,1.95.49.64.19,1.27.42,1.89.68.62.26,1.22.54,1.81.86s1.16.66,1.72,1.03c.56.37,1.09.77,1.61,1.2s1.01.87,1.49,1.35.92.97,1.35,1.49c.42.52.82,1.06,1.2,1.61.37.56.72,1.13,1.03,1.72.32.59.6,1.2.86,1.81.26.62.48,1.25.68,1.89.19.64.36,1.29.49,1.95.13.66.23,1.32.29,1.99.07.67.1,1.33.1,2v23.86c0,.45-.04.89-.13,1.33s-.22.87-.39,1.28c-.17.41-.38.81-.63,1.18-.25.37-.53.72-.85,1.03-.32.32-.66.6-1.03.85-.37.25-.77.46-1.18.63-.41.17-.84.3-1.28.39-.44.09-.88.13-1.33.13s-.89-.04-1.33-.13c-.44-.09-.87-.22-1.28-.39s-.81-.38-1.18-.63c-.37-.25-.72-.53-1.03-.85-.32-.32-.6-.66-.85-1.03-.25-.37-.46-.77-.63-1.18-.17-.41-.3-.84-.39-1.28s-.13-.88-.13-1.33v-23.86c0-.45-.04-.89-.13-1.33-.09-.44-.22-.87-.39-1.28-.17-.41-.38-.81-.63-1.18-.25-.37-.53-.72-.85-1.03-.32-.32-.66-.6-1.03-.85-.37-.25-.77-.46-1.18-.63-.41-.17-.84-.3-1.28-.39s-.88-.13-1.33-.13H20.45c-.45,0-.89.04-1.33.13-.44.09-.87.22-1.28.39s-.81.38-1.18.63c-.37.25-.72.53-1.03.85s-.6.66-.85,1.03c-.25.37-.46.77-.63,1.18-.17.41-.3.84-.39,1.28-.09.44-.13.88-.13,1.33v109.09c0,.45.04.89.13,1.33.09.44.22.87.39,1.28.17.41.38.81.63,1.18.25.37.53.72.85,1.03s.66.6,1.03.85c.37.25.77.46,1.18.63.41.17.84.3,1.28.39.44.09.88.13,1.33.13h61.36c.45,0,.89-.04,1.33-.13.44-.09.87-.22,1.28-.39.41-.17.81-.38,1.18-.63s.72-.53,1.03-.85c.32-.32.6-.66.85-1.03.25-.37.46-.77.63-1.18.17-.41.3-.84.39-1.28.09-.44.13-.88.13-1.33v-23.86c0-.45.04-.89.13-1.33.09-.44.22-.87.39-1.28.17-.41.38-.81.63-1.18.25-.37.53-.72.85-1.03.32-.32.66-.6,1.03-.85.37-.25.77-.46,1.18-.63s.84-.3,1.28-.39c.44-.09.88-.13,1.33-.13s.89.04,1.33.13c.44.09.87.22,1.28.39.41.17.81.38,1.18.63.37.25.72.53,1.03.85.32.32.6.66.85,1.03.25.37.46.77.63,1.18.17.41.3.84.39,1.28.09.44.13.88.13,1.33v23.86c0,.67-.03,1.34-.1,2-.07.67-.16,1.33-.29,1.99-.13.66-.29,1.31-.49,1.95-.19.64-.42,1.27-.68,1.89-.26.62-.54,1.22-.86,1.81-.32.59-.66,1.16-1.03,1.72-.37.56-.77,1.09-1.2,1.61-.42.52-.87,1.01-1.35,1.49-.47.47-.97.92-1.49,1.35-.52.42-1.06.82-1.61,1.2-.56.37-1.13.72-1.72,1.03-.59.32-1.2.6-1.81.86-.62.26-1.25.48-1.89.68-.64.19-1.29.36-1.95.49s-1.32.23-1.99.29c-.67.07-1.33.1-2,.1Z"/>
    <path class="cls-1" d="M139.77,81.82H50.52c-.45,0-.89-.04-1.33-.13-.44-.09-.87-.22-1.28-.39-.41-.17-.81-.38-1.18-.63-.37-.25-.72-.53-1.03-.85-.32-.32-.6-.66-.85-1.03-.25-.37-.46-.77-.63-1.18s-.3-.84-.39-1.28c-.09-.44-.13-.88-.13-1.33s.04-.89.13-1.33c.09-.44.22-.87.39-1.28.17-.41.38-.81.63-1.18.25-.37.53-.72.85-1.03s.66-.6,1.03-.85.77-.46,1.18-.63c.41-.17.84-.3,1.28-.39.44-.09.88-.13,1.33-.13h89.25c.45,0,.89.04,1.33.13s.87.22,1.28.39c.41.17.81.38,1.18.63.37.25.72.53,1.03.85s.6.66.85,1.03c.25.37.46.77.63,1.18.17.41.3.84.39,1.28.09.44.13.88.13,1.33,0,.45-.04.89-.13,1.33-.09.44-.22.87-.39,1.28s-.38.81-.63,1.18c-.25.37-.53.72-.85,1.03-.32.32-.66.6-1.03.85-.37.25-.77.46-1.18.63-.41.17-.84.3-1.28.39s-.88.13-1.33.13Z"/>
    <path class="cls-1" d="M122.73,102.27c-.67,0-1.33-.1-1.97-.3-.64-.2-1.24-.48-1.8-.86-.56-.37-1.05-.82-1.48-1.34-.43-.52-.77-1.09-1.02-1.71-.26-.62-.42-1.27-.48-1.94-.07-.67-.03-1.33.1-1.99.13-.66.35-1.29.67-1.88s.71-1.13,1.18-1.61l15.61-15.65-15.65-15.65c-.32-.32-.6-.66-.85-1.03-.25-.37-.46-.77-.63-1.18-.17-.41-.3-.84-.39-1.28-.09-.44-.13-.88-.13-1.33s.04-.89.13-1.33c.09-.44.22-.87.39-1.28.17-.41.38-.81.63-1.18.25-.37.53-.72.85-1.03.32-.32.66-.6,1.03-.85.37-.25.77-.46,1.18-.63s.84-.3,1.28-.39c.44-.09.88-.13,1.33-.13s.89.04,1.33.13c.44.09.87.22,1.28.39s.81.38,1.18.63c.37.25.72.53,1.03.85l20.45,20.45c.32.32.6.66.85,1.03.25.37.46.77.63,1.18.17.41.3.84.39,1.28.09.44.13.88.13,1.33s-.04.89-.13,1.33c-.09.44-.22.87-.39,1.28-.17.41-.38.81-.63,1.18-.25.37-.53.72-.85,1.03l-20.45,20.45c-.64.64-1.37,1.13-2.2,1.48-.83.35-1.7.52-2.6.53Z"/>
  </g>
</svg>