<?xml version="1.0" encoding="UTF-8"?>
<svg id="Ebene_1" data-name="Ebene 1" xmlns="http://www.w3.org/2000/svg" viewBox="0 0 140.95 140.95">
  <defs>
    <style>
      .cls-1 {
        fill: #f19115;
      }

      .cls-2 {
        fill: #fff;
      }
    </style>
  </defs>
  <path class="cls-1" d="M70.48,140.95c38.86,0,70.48-31.62,70.48-70.48C140.95,31.62,109.34,0,70.48,0S0,31.62,0,70.47s31.62,70.48,70.48,70.48"/>
  <path class="cls-1" d="M39.6,34.66h61.75c9.88,0,17.89,8.01,17.89,17.89v24.01c0,9.88-8.01,17.89-17.89,17.89h-.57s0,22.22,0,22.22l-22.22-22.22h-38.96c-9.88,0-17.89-8.01-17.89-17.89v-24.01c0-9.88,8.01-17.89,17.89-17.89"/>
  <path class="cls-2" d="M100.78,118.79c-.55,0-1.09-.21-1.5-.62l-21.6-21.6h-38.09c-11.03,0-20-8.97-20-20v-24.02c0-11.03,8.97-20,20-20h61.75c11.03,0,20,8.97,20,20v24.02c0,10.51-8.15,19.15-18.46,19.94v20.16c0,.85-.51,1.63-1.31,1.95-.26.11-.54.16-.81.16M39.6,36.78c-8.7,0-15.77,7.08-15.77,15.78v24.02c0,8.7,7.08,15.77,15.77,15.77h38.96c.56,0,1.1.22,1.5.62l18.61,18.61v-17.11c0-1.17.95-2.11,2.11-2.11h.57c8.7,0,15.77-7.08,15.77-15.77v-24.02c0-8.7-7.08-15.78-15.77-15.78h-61.75Z"/>
  <path class="cls-2" d="M86.06,63.28c0,3.94,3.2,7.14,7.14,7.14s7.14-3.2,7.14-7.14c0-3.95-3.2-7.14-7.14-7.14-3.95,0-7.14,3.2-7.14,7.14"/>
  <path class="cls-2" d="M63.33,63.28c0,3.94,3.2,7.14,7.14,7.14,3.94,0,7.14-3.2,7.14-7.14,0-3.95-3.2-7.14-7.14-7.14s-7.14,3.2-7.14,7.14"/>
  <path class="cls-2" d="M40.62,63.28c0,3.94,3.2,7.14,7.14,7.14s7.14-3.2,7.14-7.14c0-3.95-3.2-7.14-7.14-7.14-3.95,0-7.14,3.2-7.14,7.14"/>
</svg>