<?xml version="1.0" encoding="UTF-8"?>
<svg xmlns="http://www.w3.org/2000/svg" viewBox="0 0 1920 115.62">
  <defs>
    <style>
      .cls-1, .cls-2, .cls-3 {
        fill: #e6e5e9;
      }

      .cls-4 {
        stroke: #fff;
        stroke-linecap: round;
        stroke-linejoin: round;
        stroke-width: .2px;
      }

      .cls-4, .cls-5 {
        fill: none;
      }

      .cls-6, .cls-5, .cls-7, .cls-2, .cls-8, .cls-3 {
        opacity: .8;
      }

      .cls-6, .cls-2 {
        font-family: Verdana, Verdana;
        font-size: 14px;
      }

      .cls-9, .cls-10 {
        fill: #fff;
      }

      .cls-5 {
        stroke: #e6e5e9;
        stroke-miterlimit: 10;
        stroke-width: 2.07px;
      }

      .cls-10, .cls-11 {
        fill-rule: evenodd;
      }

      .cls-12 {
        letter-spacing: -.02em;
      }

      .cls-11 {
        fill: #010101;
      }

      .cls-8 {
        fill: #e0dfe5;
        font-family: Verdana-Bold, Verdana;
        font-size: 20.71px;
        font-weight: 700;
      }

      .cls-13 {
        fill: #34353b;
      }

      .cls-14 {
        fill: #5c8791;
      }

      .cls-15 {
        fill: #fcc10c;
      }
    </style>
  </defs>
  <g id="Balken_unten" data-name="Balken unten">
    <rect class="cls-14" width="1920" height="115.62"/>
  </g>
  <g id="Sprache_text_unten" data-name="Sprache text unten">
    <text class="cls-2" transform="translate(861.88 86.72)"><tspan x="0" y="0">Sp</tspan><tspan class="cls-12" x="18.29" y="0">r</tspan><tspan x="24.02" y="0" xml:space="preserve">ache:  </tspan></text>
  </g>
  <g id="twitter">
    <g>
      <polygon class="cls-10" points="1223.26 43.17 1227.46 43.14 1237.67 57.96 1233.43 57.92 1223.26 43.17"/>
      <polygon class="cls-4" points="1223.26 43.17 1227.46 43.14 1237.67 57.96 1233.43 57.92 1223.26 43.17"/>
      <polygon class="cls-10" points="1235.91 43.14 1237.22 43.14 1224.52 57.96 1223.26 57.96 1235.91 43.14"/>
      <polygon class="cls-4" points="1235.91 43.14 1237.22 43.14 1224.52 57.96 1223.26 57.96 1235.91 43.14"/>
      <polygon class="cls-11" points="1224.99 44.29 1226.94 44.3 1235.95 57.17 1234 57.17 1224.99 44.29"/>
      <path class="cls-11" d="M1225.14,44.37l8.9,12.72h1.76s-8.91-12.71-8.91-12.71h-1.75ZM1224.99,44.29h1.95s9.01,12.88,9.01,12.88h-1.95s-9.01-12.88-9.01-12.88Z"/>
    </g>
  </g>
  <g id="facebook">
    <path class="cls-1" d="M1191.85,45.12h1.57v-2.37h-2c-2.63.11-3.18,1.58-3.22,3.14h0v1.64h-1.57v2.37h1.57v7.2h2.82v-7.2h2.02l.4-2.37h-2.42v-1.47c0-.52.35-.95.85-.95h0Z"/>
  </g>
  <g id="Deutsch_unten" data-name="Deutsch unten">
    <rect class="cls-13" x="931.24" y="71.73" width="80.15" height="20.7" rx="7.16" ry="7.16"/>
    <text class="cls-6" transform="translate(935.27 86.72)"><tspan class="cls-9" x="0" y="0">Deutsch </tspan><tspan class="cls-1" x="61.87" y="0"> </tspan></text>
  </g>
  <g id="Datenschutz">
    <text class="cls-2" transform="translate(862.26 53.41)"><tspan x="0" y="0">Datenschutz</tspan></text>
  </g>
  <g id="Logo_unten" data-name="Logo unten">
    <g>
      <circle class="cls-5" cx="627.75" cy="48.89" r="16.32"/>
      <polygon class="cls-3" points="627.79 25.11 626.33 32.16 629.26 32.16 627.79 25.11"/>
      <polygon class="cls-3" points="627.16 72.26 628.62 65.21 625.69 65.21 627.16 72.26"/>
      <polygon class="cls-3" points="604.3 48.68 611.35 50.14 611.35 47.21 604.3 48.68"/>
      <polygon class="cls-3" points="651.12 48.68 644.07 47.21 644.07 50.14 651.12 48.68"/>
      <polygon class="cls-3" points="642.85 33.92 638.47 36.24 640.54 38.31 642.85 33.92"/>
      <polygon class="cls-3" points="613 33.79 615.12 38.27 617.28 36.29 613 33.79"/>
      <polygon class="cls-3" points="613.97 65.45 618.35 63.13 616.28 61.06 613.97 65.45"/>
      <polygon class="cls-3" points="642.11 65.39 639.8 61.01 637.73 63.08 642.11 65.39"/>
      <g class="cls-7">
        <path class="cls-15" d="M624.04,47.44s0,.05-.03.07c-.02.02-.04.03-.07.03h-1.14c-.06,0-.12.01-.18.04-.06.02-.11.06-.15.1-.04.04-.08.1-.1.15-.02.06-.04.12-.04.18v1.14s0,.05-.03.07-.04.03-.07.03h-1.14s-.05,0-.07-.03c-.02-.02-.03-.04-.03-.07v-1.14c0-.06-.01-.12-.04-.18-.02-.06-.06-.11-.1-.15-.04-.04-.1-.08-.15-.1-.06-.02-.12-.04-.18-.04h-1.14s-.05,0-.07-.03-.03-.04-.03-.07v-1.14s0-.05.03-.07c.02-.02.04-.03.07-.03h1.14c.06,0,.12-.01.18-.04.06-.02.11-.06.15-.1.04-.04.08-.1.1-.15.02-.06.04-.12.04-.18v-1.14s0-.05.03-.07.04-.03.07-.03h1.14s.05,0,.07.03c.02.02.03.04.03.07v1.14c0,.06.01.12.04.18s.06.11.1.15c.04.04.1.08.15.1s.12.04.18.04h1.14s.05,0,.07.03c.02.02.03.04.03.07v1.14ZM623.94,45.26h-.66v-.67c0-.07,0-.14-.02-.2-.01-.07-.03-.13-.06-.2-.03-.06-.06-.12-.1-.18-.04-.06-.08-.11-.13-.16-.05-.05-.1-.09-.16-.13-.06-.04-.12-.07-.18-.1s-.13-.05-.2-.06c-.07-.01-.13-.02-.2-.02h-1.14c-.07,0-.14,0-.2.02-.07.01-.13.03-.2.06-.06.03-.12.06-.18.1-.06.04-.11.08-.16.13s-.09.1-.13.16c-.04.06-.07.12-.1.18-.03.06-.05.13-.06.2-.01.07-.02.14-.02.2v.67h-.66c-.07,0-.14,0-.2.02-.07.01-.13.03-.2.06-.06.03-.12.06-.18.1-.06.04-.11.08-.16.13-.05.05-.09.1-.13.16-.04.06-.07.12-.1.18-.03.06-.05.13-.06.2-.01.07-.02.14-.02.2v1.14c0,.07,0,.14.02.2.01.07.03.13.06.2.03.06.06.12.1.18.04.06.08.11.13.16.05.05.1.09.16.13.06.04.12.07.18.1.06.03.13.05.2.06s.13.02.2.02h.66v.67c0,.07,0,.14.02.2.01.07.03.13.06.2s.06.12.1.18c.04.06.08.11.13.16.05.05.1.09.16.13.06.04.12.07.18.1.06.03.13.05.2.06.07.01.13.02.2.02h1.14c.07,0,.14,0,.2-.02s.13-.03.2-.06c.06-.03.12-.06.18-.1.06-.04.11-.08.16-.13.05-.05.09-.1.13-.16.04-.06.07-.12.1-.18.03-.06.05-.13.06-.2.01-.07.02-.14.02-.2v-.67h.66c.07,0,.14,0,.2-.02.07-.01.13-.03.2-.06s.12-.06.18-.1c.06-.04.11-.08.16-.13.05-.05.09-.1.13-.16.04-.06.07-.12.1-.18.03-.06.05-.13.06-.2s.02-.14.02-.2v-1.14c0-.07,0-.14-.02-.2-.01-.07-.03-.13-.06-.2s-.06-.12-.1-.18c-.04-.06-.08-.11-.13-.16-.05-.05-.1-.09-.16-.13-.06-.04-.12-.07-.18-.1s-.13-.05-.2-.06c-.07-.01-.13-.02-.2-.02Z"/>
        <path class="cls-15" d="M633.15,50.25c-.08,0-.16-.02-.24-.05-.08-.03-.14-.08-.2-.14-.06-.06-.1-.13-.13-.21-.03-.08-.05-.16-.05-.24s.02-.16.05-.24c.03-.08.08-.15.14-.2.06-.06.13-.1.2-.14.08-.03.16-.05.24-.05.08,0,.16.02.24.05.08.03.14.08.2.14.06.06.1.13.13.21.03.08.05.16.05.24,0,.08-.02.16-.05.24-.03.08-.08.15-.14.2-.06.06-.13.1-.2.14-.08.03-.16.05-.24.05h0ZM633.19,48.03c-.1,0-.21,0-.31.03-.1.02-.2.05-.3.09-.1.04-.19.09-.27.14-.09.06-.17.12-.24.19-.07.07-.14.15-.2.24-.06.09-.11.18-.15.27-.04.1-.07.19-.09.29-.02.1-.03.2-.04.31,0,.1,0,.21.02.31.02.1.05.2.08.3.04.1.08.19.14.28.06.09.12.17.19.24.07.07.15.14.23.2.08.06.17.11.27.15.09.04.19.07.29.1.1.02.2.04.31.04,2.08-.04,2.16-3.08.06-3.17Z"/>
        <path class="cls-15" d="M630.41,47.49c-.08,0-.16-.02-.24-.06-.07-.03-.14-.08-.2-.14-.06-.06-.1-.13-.13-.21-.03-.08-.04-.16-.04-.24,0-.08.02-.16.05-.24.03-.08.08-.14.14-.2.06-.06.13-.1.2-.13.08-.03.16-.05.24-.05.08,0,.17.02.24.05s.15.08.21.14c.06.06.1.13.13.21.03.08.05.16.04.25,0,.08-.02.17-.06.24-.03.08-.08.15-.15.2-.06.06-.13.1-.21.13-.08.03-.16.04-.25.04ZM630.45,45.28c-2.1.02-2.13,3.13-.03,3.16.1,0,.2-.01.31-.03s.2-.05.29-.09c.09-.04.19-.09.27-.14.09-.06.16-.12.24-.19.07-.07.14-.15.2-.24.06-.09.11-.18.15-.27.04-.09.07-.19.09-.29.02-.1.03-.2.03-.31s0-.2-.03-.31-.05-.2-.09-.3c-.04-.1-.08-.19-.14-.27-.06-.09-.12-.17-.19-.24s-.15-.14-.23-.2-.17-.11-.27-.15c-.09-.04-.19-.07-.29-.1-.1-.02-.2-.03-.3-.04Z"/>
        <path class="cls-15" d="M635.88,47.49c-.08,0-.16-.02-.24-.05-.08-.03-.14-.08-.2-.14s-.1-.13-.13-.21c-.03-.08-.04-.16-.04-.24,0-.08.02-.16.05-.24.03-.08.08-.14.14-.2.06-.06.13-.1.21-.13.08-.03.16-.05.24-.05.08,0,.16.02.24.05.08.03.14.08.2.14.06.06.1.13.13.21.03.08.04.16.04.24,0,.08-.02.16-.05.24-.03.08-.08.14-.14.2-.06.06-.13.1-.21.13-.08.03-.16.05-.24.05ZM635.92,45.28c-2.09.05-2.14,3.11-.02,3.16,2.08-.03,2.08-3.1.02-3.16Z"/>
        <path class="cls-15" d="M632.72,43.67c.09-.09.2-.14.33-.17.13-.02.25,0,.36.04.12.05.21.13.28.23.07.11.11.22.11.35,0,.08-.02.17-.06.24-.03.08-.08.15-.14.21-.06.06-.13.11-.2.14s-.16.05-.24.06c-.13,0-.25-.04-.35-.11-.11-.07-.18-.17-.23-.29-.05-.12-.06-.24-.03-.37.03-.13.08-.24.18-.33h0ZM633.15,45.72c.1,0,.21-.01.31-.03.1-.02.2-.05.3-.09.1-.04.19-.09.27-.15.09-.06.17-.12.24-.2.07-.07.14-.15.2-.24s.11-.18.15-.27.07-.19.09-.3c.02-.1.03-.2.03-.31s0-.21-.03-.31c-.02-.1-.05-.2-.09-.3-.04-.1-.09-.19-.14-.28-.06-.09-.12-.17-.19-.24-.07-.07-.15-.14-.23-.2-.08-.06-.17-.11-.27-.15-.09-.04-.19-.07-.29-.1s-.2-.04-.31-.04c-.1,0-.21.01-.31.03-.1.02-.2.05-.3.09-.1.04-.19.09-.27.15-.09.06-.17.12-.24.2-.07.07-.14.15-.2.24-.06.09-.11.18-.15.27-.04.1-.07.19-.09.3-.02.1-.03.2-.03.31,0,.1,0,.21.03.31.02.1.05.2.09.3.04.1.09.19.14.28.06.09.12.17.19.24.07.07.15.14.23.2.08.06.17.11.27.15s.19.07.29.1.2.04.31.04Z"/>
        <path class="cls-15" d="M636.93,56.35c-2.87-.86-4.36-3.92-7.27-4.29-2.64-.42-5.38-.26-7.44,1.7-.89.85-1.87,1.58-2.94,2.19-6.6,3.39-3.36-10.08-2.03-12.17,2.24-4.35,4.75-3.15,8.74-2.24,1.34.4,3.12.1,4.65-.32,2.44-.67,4.81-1.19,6.51,1.22,2.16,2.3,5.17,15.54-.22,13.92h0ZM640.5,55.31c.73-2.74.37-5.15-.41-8.46-.78-3.35-2.97-7.97-7.31-7.09-2.09.31-4.57,1.42-6.56.85-1.14-.29-2.29-.53-3.42-.77-6.46-1.41-8.21,7.31-8.47,12.56-.16,3.51,1.62,6.42,5.39,4.38,1.14-.64,2.19-1.42,3.14-2.33.62-.61,1.35-1.05,2.19-1.29,2.48-.63,5.4-.55,7.43,1.39,1.91,1.93,6.5,4.99,8.02.76Z"/>
      </g>
    </g>
  </g>
  <g id="GAMECOMPASS_unten" data-name="GAMECOMPASS unten">
    <text class="cls-8" transform="translate(659.6 56.52)"><tspan x="0" y="0">GAMECOMPASS</tspan></text>
  </g>
  <g id="AGB">
    <text class="cls-2" transform="translate(965.56 53.41)"><tspan x="0" y="0">AGB</tspan></text>
  </g>
  <g id="Support_unten" data-name="Support unten">
    <text class="cls-2" transform="translate(1100.67 53.83)"><tspan x="0" y="0" xml:space="preserve"> Support       </tspan></text>
  </g>
  <g id="Sprach_icon_unten" data-name="Sprach icon unten">
    <path class="cls-1" d="M1003.7,83.2c.04-.37.08-.74.08-1.12s-.03-.75-.08-1.12h1.89c.09.36.15.73.15,1.12s-.05.76-.15,1.12h-1.89ZM1002.71,86.32c.34-.63.59-1.3.77-2h1.65c-.54.93-1.4,1.64-2.43,2h0ZM1002.57,83.2h-2.62c-.05-.37-.09-.74-.09-1.12s.04-.75.09-1.12h2.62c.05.37.09.74.09,1.12s-.04.75-.09,1.12ZM1001.26,86.55c-.47-.67-.83-1.42-1.07-2.22h2.14c-.24.8-.61,1.55-1.07,2.22ZM999.03,79.84h-1.65c.54-.93,1.4-1.65,2.43-2-.34.63-.59,1.3-.77,2ZM997.37,84.32h1.65c.18.7.44,1.37.77,2-1.03-.35-1.89-1.07-2.43-2h0ZM996.92,83.2c-.09-.36-.15-.73-.15-1.12s.05-.76.15-1.12h1.89c-.04.37-.08.74-.08,1.12s.03.75.08,1.12h-1.9ZM1001.26,77.61c.47.67.83,1.42,1.07,2.22h-2.14c.24-.8.6-1.55,1.07-2.22ZM1005.14,79.84h-1.65c-.18-.7-.44-1.37-.77-2,1.03.35,1.89,1.07,2.43,2ZM1001.25,76.47c-3.1,0-5.61,2.51-5.61,5.61s2.51,5.61,5.61,5.61,5.61-2.51,5.61-5.61-2.51-5.61-5.61-5.61Z"/>
  </g>
  <g id="Impressum">
    <text class="cls-2" transform="translate(1011.78 53.41)"><tspan x="0" y="0">Impressum</tspan></text>
  </g>
</svg>