<?xml version="1.0" encoding="UTF-8"?>
<svg xmlns="http://www.w3.org/2000/svg" xmlns:xlink="http://www.w3.org/1999/xlink" viewBox="0 0 1920 115.62">
  <defs>
    <style>
      .cls-1 {
        fill: #e6e5e9;
      }

      .cls-2 {
        fill: #f19115;
      }

      .cls-3 {
        fill: #fff;
      }

      .cls-4, .cls-5, .cls-6 {
        fill: #e0dfe5;
      }

      .cls-7, .cls-8 {
        fill: #9e9e9e;
      }

      .cls-7, .cls-6 {
        font-family: Verdana, Verdana;
        font-size: 18px;
      }

      .cls-9 {
        letter-spacing: 0em;
      }

      .cls-10, .cls-11 {
        fill: none;
      }

      .cls-11 {
        stroke: #e0dfe5;
        stroke-miterlimit: 10;
        stroke-width: 3px;
      }

      .cls-5 {
        font-family: Verdana-Bold, Verdana;
        font-size: 30px;
        font-weight: 700;
      }

      .cls-12 {
        letter-spacing: -.05em;
      }

      .cls-13 {
        fill: #5c8791;
      }

      .cls-14 {
        clip-path: url(#clippath);
      }
    </style>
    <clipPath id="clippath">
      <rect class="cls-10" x="1221.18" y="41.13" width="69.16" height="34.58"/>
    </clipPath>
  </defs>
  <g id="Balken">
    <g id="Balken_oben" data-name="Balken oben">
      <rect class="cls-13" width="1920" height="115.62"/>
    </g>
  </g>
  <g id="Anmelden">
    <g>
      <rect class="cls-3" x="1717.81" y="29.97" width="129.4" height="54.83" rx="19.82" ry="19.82"/>
      <text class="cls-7" transform="translate(1736.72 62.04)"><tspan x="0" y="0">Anmelden</tspan></text>
    </g>
  </g>
  <g id="Suchen">
    <g>
      <rect class="cls-3" x="1319.71" y="29.97" width="379.82" height="54.83" rx="19.82" ry="19.82"/>
      <path class="cls-8" d="M1351.33,63.18c-1.67,1.12-3.67,1.77-5.83,1.77-5.79,0-10.48-4.69-10.48-10.48s4.69-10.49,10.48-10.49,10.48,4.69,10.48,10.48c0,2.87-1.15,5.47-3.02,7.37-.49.5-1.04.96-1.63,1.35h0ZM1362.96,70.97l-7.76-7.45c2.3-2.46,3.57-5.66,3.57-9.05s-1.38-6.88-3.89-9.39c-2.51-2.51-5.84-3.89-9.39-3.89s-6.88,1.38-9.39,3.89c-2.51,2.51-3.89,5.84-3.89,9.39s1.38,6.88,3.89,9.39c2.51,2.51,5.84,3.89,9.39,3.89,2.67,0,5.22-.78,7.39-2.25l7.97,7.66c.28.27.66.42,1.05.42s.81-.17,1.09-.47c.58-.6.56-1.56-.04-2.14h0Z"/>
      <text class="cls-7" transform="translate(1375.81 63.04)"><tspan x="0" y="0">Suchen</tspan></text>
    </g>
  </g>
  <g id="Sprache_icon_oben" data-name="Sprache icon oben">
    <path class="cls-4" d="M1892.13,60.34c.14-1.17.25-2.37.25-3.59s-.1-2.41-.25-3.59h6.05c.3,1.15.48,2.35.48,3.59s-.17,2.44-.48,3.59h-6.05ZM1888.97,70.31c1.08-2,1.89-4.14,2.47-6.38h5.29c-1.73,2.97-4.47,5.25-7.76,6.38h0ZM1888.51,60.34h-8.39c-.17-1.17-.29-2.37-.29-3.59s.12-2.41.29-3.59h8.39c.17,1.17.29,2.37.29,3.59s-.12,2.41-.29,3.59ZM1884.31,71.04c-1.49-2.15-2.65-4.55-3.42-7.11h6.85c-.77,2.56-1.94,4.96-3.42,7.11ZM1877.18,49.58h-5.29c1.72-2.97,4.47-5.26,7.76-6.39-1.08,2-1.89,4.15-2.47,6.39ZM1871.89,63.93h5.29c.58,2.24,1.4,4.39,2.47,6.39-3.3-1.13-6.04-3.42-7.76-6.39h0ZM1870.43,60.34c-.3-1.15-.47-2.35-.47-3.59s.17-2.44.47-3.59h6.05c-.14,1.17-.24,2.37-.24,3.59s.1,2.41.25,3.59h-6.06ZM1884.31,42.47c1.5,2.15,2.66,4.55,3.42,7.11h-6.85c.76-2.56,1.93-4.96,3.42-7.11ZM1896.72,49.58h-5.29c-.58-2.24-1.4-4.39-2.47-6.38,3.3,1.13,6.04,3.42,7.76,6.38ZM1884.3,38.82c-9.91,0-17.92,8.02-17.92,17.93s8.02,17.93,17.92,17.93,17.94-8.02,17.94-17.93-8.03-17.93-17.94-17.93Z"/>
  </g>
  <g id="Entdecken">
    <text class="cls-6" transform="translate(485.36 67.41)"><tspan x="0" y="0">Entdec</tspan><tspan class="cls-9" x="61.18" y="0">k</tspan><tspan x="71.66" y="0">en</tspan></text>
  </g>
  <g id="Support_oben" data-name="Support oben">
    <text class="cls-6" transform="translate(715.87 67.41)"><tspan x="0" y="0">Support</tspan></text>
  </g>
  <g id="Verkaufen-2" data-name="Verkaufen">
    <text class="cls-6" transform="translate(600.65 67.41)"><tspan class="cls-12" x="0" y="0">V</tspan><tspan x="11.43" y="0">erkaufen</tspan></text>
  </g>
  <g id="Warenkorb">
    <g>
      <g>
        <path class="cls-4" d="M848.74,53l-2.33,10.09c-.06.28-.17.55-.33.79-.15.24-.34.46-.57.64s-.48.32-.75.41c-.27.09-.55.14-.84.14h-15.97l-2.84-12.07h23.63ZM827.08,67.26h16.84c.54,0,1.06-.09,1.57-.26.51-.18.97-.43,1.39-.77s.77-.73,1.06-1.18c.29-.46.49-.94.61-1.47l2.64-11.43c.04-.16.04-.33,0-.49s-.11-.31-.21-.44c-.1-.13-.23-.23-.38-.31-.15-.07-.31-.11-.48-.11h-25.52l-.83-3.54c-.06-.25-.19-.45-.39-.61-.2-.16-.43-.24-.68-.24h-3.29c-.15,0-.29.03-.42.08-.13.06-.25.13-.36.24-.1.1-.18.22-.24.36-.06.13-.08.27-.08.42,0,.15.03.29.08.42.06.13.13.25.24.36.1.1.22.18.36.24.13.06.27.08.42.08h2.42l3.94,16.74c-.34.15-.65.36-.93.62-.27.26-.5.56-.67.89-.17.34-.28.69-.33,1.06-.05.37-.04.74.04,1.11.08.37.21.71.41,1.04.2.32.44.6.73.84.29.24.62.42.97.55.35.13.72.19,1.1.19h20.84c.15,0,.29-.03.42-.08.13-.06.25-.13.36-.24s.18-.22.24-.36c.06-.13.08-.27.08-.42,0-.15-.03-.29-.08-.42-.06-.13-.13-.25-.24-.36-.1-.1-.22-.18-.36-.24-.13-.06-.27-.08-.42-.08h-20.84c-.15,0-.29-.03-.42-.08-.13-.06-.25-.13-.36-.24-.1-.1-.18-.22-.24-.36-.06-.13-.08-.27-.08-.42,0-.15.03-.29.08-.42.06-.13.13-.25.24-.36.1-.1.22-.18.36-.24.13-.06.27-.08.42-.08Z"/>
        <path class="cls-4" d="M829.27,77.14c-.15,0-.29-.03-.42-.08-.13-.06-.25-.13-.36-.24s-.18-.22-.24-.36c-.06-.13-.08-.27-.08-.42,0-.15.03-.29.08-.42.06-.13.13-.25.24-.36s.22-.18.36-.24c.13-.06.27-.08.42-.08s.29.03.42.08c.13.06.25.13.36.24s.18.22.24.36c.06.13.08.27.08.42,0,.15-.03.29-.08.42-.06.13-.13.25-.24.36s-.22.18-.36.24c-.13.06-.27.08-.42.08ZM829.27,72.75c-.22,0-.43.02-.64.06-.21.04-.42.1-.62.19-.2.08-.39.18-.57.3-.18.12-.35.26-.5.41-.15.15-.29.32-.41.5-.12.18-.22.37-.3.57-.08.2-.15.41-.19.62s-.06.43-.06.64c0,.22.02.43.06.64.04.21.1.42.19.62.08.2.18.39.3.57.12.18.26.35.41.5.15.15.32.29.5.41.18.12.37.22.57.3.2.08.41.15.62.19.21.04.43.06.64.06s.43-.02.64-.06c.21-.04.42-.1.62-.19.2-.08.39-.18.57-.3.18-.12.35-.26.5-.41s.29-.32.41-.5c.12-.18.22-.37.3-.57.08-.2.15-.41.19-.62.04-.21.06-.43.06-.64,0-.22-.02-.43-.06-.64s-.1-.42-.19-.62c-.08-.2-.18-.39-.3-.57s-.26-.35-.41-.5c-.15-.15-.32-.29-.5-.41-.18-.12-.37-.22-.57-.3s-.41-.15-.62-.19c-.21-.04-.43-.06-.64-.06Z"/>
        <path class="cls-4" d="M842.44,77.14c-.15,0-.29-.03-.42-.08-.13-.06-.25-.13-.36-.24-.1-.1-.18-.22-.24-.36-.06-.13-.08-.27-.08-.42,0-.15.03-.29.08-.42.06-.13.13-.25.24-.36.1-.1.22-.18.36-.24.13-.06.27-.08.42-.08s.29.03.42.08c.13.06.25.13.36.24.1.1.18.22.24.36.06.13.08.27.08.42,0,.15-.03.29-.08.42-.06.13-.13.25-.24.36-.1.1-.22.18-.36.24-.13.06-.27.08-.42.08ZM842.44,72.75c-.22,0-.43.02-.64.06-.21.04-.42.1-.62.19s-.39.18-.57.3-.35.26-.5.41-.29.32-.41.5c-.12.18-.22.37-.3.57s-.15.41-.19.62-.06.43-.06.64c0,.22.02.43.06.64.04.21.1.42.19.62.08.2.18.39.3.57.12.18.26.35.41.5.15.15.32.29.5.41.18.12.37.22.57.3s.41.15.62.19c.21.04.43.06.64.06s.43-.02.64-.06c.21-.04.42-.1.62-.19.2-.08.39-.18.57-.3.18-.12.35-.26.5-.41s.29-.32.41-.5.22-.37.3-.57c.08-.2.15-.41.19-.62.04-.21.06-.43.06-.64,0-.22-.02-.43-.06-.64-.04-.21-.1-.42-.19-.62-.08-.2-.18-.39-.3-.57-.12-.18-.26-.35-.41-.5-.15-.15-.32-.29-.5-.41s-.37-.22-.57-.3c-.2-.08-.41-.15-.62-.19-.21-.04-.43-.06-.64-.06Z"/>
      </g>
      <circle class="cls-4" cx="848.74" cy="51.44" r="6.12"/>
    </g>
  </g>
  <g id="Lightmode">
    <g class="cls-14">
      <path class="cls-1" d="M1273.1,75.71h-34.66c-.57,0-1.13-.03-1.7-.08-.56-.06-1.13-.14-1.68-.25-.56-.11-1.11-.25-1.65-.41s-1.08-.35-1.6-.57c-.52-.22-1.04-.46-1.54-.73-.5-.27-.99-.56-1.46-.87-.47-.31-.93-.65-1.37-1.01-.44-.36-.86-.74-1.26-1.14-.4-.4-.78-.82-1.14-1.26-.36-.44-.7-.89-1.01-1.36-.32-.47-.61-.96-.87-1.45-.27-.5-.51-1.01-.73-1.53-.22-.52-.41-1.06-.57-1.6-.16-.54-.3-1.09-.41-1.65-.11-.56-.19-1.11-.25-1.68-.06-.56-.08-1.13-.08-1.69s.03-1.13.08-1.69.14-1.12.25-1.68c.11-.56.25-1.1.41-1.65.16-.54.36-1.07.57-1.6s.46-1.03.73-1.53.56-.98.87-1.46c.32-.47.65-.92,1.01-1.36.36-.44.74-.86,1.14-1.26.4-.4.82-.78,1.26-1.14.44-.36.89-.7,1.37-1.01.47-.31.96-.61,1.46-.87.5-.27,1.01-.51,1.54-.73.52-.22,1.06-.41,1.6-.57.54-.16,1.09-.3,1.65-.41.56-.11,1.12-.19,1.68-.25.56-.06,1.13-.08,1.7-.08h34.66c.57,0,1.13.03,1.7.08.56.06,1.13.14,1.68.25.56.11,1.11.25,1.65.41.54.16,1.08.35,1.6.57.52.22,1.04.46,1.54.73.5.27.99.56,1.46.87.47.31.93.65,1.37,1.01.44.36.86.74,1.26,1.14.4.4.78.82,1.14,1.26.36.44.7.89,1.01,1.36.32.47.61.96.87,1.45.27.5.51,1.01.73,1.53.22.52.41,1.06.57,1.6.16.54.3,1.09.41,1.65s.19,1.11.25,1.68c.06.56.08,1.13.08,1.69,0,.57-.03,1.13-.08,1.69-.06.56-.14,1.12-.25,1.68s-.25,1.1-.41,1.65c-.16.54-.36,1.07-.57,1.6-.22.52-.46,1.03-.73,1.53-.27.5-.56.98-.87,1.45-.32.47-.65.92-1.01,1.36-.36.44-.74.86-1.14,1.26-.4.4-.82.78-1.26,1.14-.44.36-.89.7-1.37,1.01-.47.31-.96.61-1.46.87-.5.27-1.01.51-1.54.73-.52.22-1.06.41-1.6.57-.54.16-1.09.3-1.65.41-.56.11-1.12.19-1.68.25-.56.06-1.13.08-1.7.08Z"/>
      <path class="cls-8" d="M1224.58,58.42c0,.45.02.9.07,1.36.04.45.11.9.2,1.34s.2.88.33,1.32c.13.43.28.86.46,1.28.17.42.37.83.58,1.23.21.4.45.79.7,1.16.25.38.52.74.81,1.09.29.35.59.69.91,1.01.32.32.66.62,1.01.91s.72.56,1.09.81.77.48,1.17.7c.4.21.81.41,1.23.58.42.17.85.33,1.28.46.43.13.87.24,1.32.33.45.09.89.15,1.35.2s.9.07,1.36.07.91-.02,1.36-.07c.45-.04.9-.11,1.35-.2.45-.09.89-.2,1.32-.33.43-.13.86-.28,1.28-.46.42-.17.83-.37,1.23-.58.4-.21.79-.45,1.17-.7.38-.25.74-.52,1.09-.81.35-.29.69-.59,1.01-.91.32-.32.63-.66.91-1.01.29-.35.56-.71.81-1.09.25-.38.49-.76.7-1.16.21-.4.41-.81.58-1.23.17-.42.33-.84.46-1.28.13-.43.24-.87.33-1.32.09-.44.16-.89.2-1.34.04-.45.07-.9.07-1.36s-.02-.9-.07-1.36c-.04-.45-.11-.9-.2-1.34-.09-.44-.2-.88-.33-1.32-.13-.43-.28-.86-.46-1.28-.17-.42-.37-.83-.58-1.23-.21-.4-.45-.79-.7-1.16-.25-.38-.52-.74-.81-1.09-.29-.35-.59-.69-.91-1.01-.32-.32-.66-.62-1.01-.91-.35-.29-.72-.56-1.09-.81-.38-.25-.77-.48-1.17-.7-.4-.21-.81-.41-1.23-.58-.42-.17-.85-.33-1.28-.46-.43-.13-.87-.24-1.32-.33-.45-.09-.89-.15-1.35-.2-.45-.04-.9-.07-1.36-.07s-.91.02-1.36.07c-.45.04-.9.11-1.35.2-.45.09-.89.2-1.32.33-.43.13-.86.28-1.28.46-.42.17-.83.37-1.23.58-.4.21-.79.45-1.17.7s-.74.52-1.09.81c-.35.29-.69.59-1.01.91-.32.32-.63.66-.91,1.01-.29.35-.56.71-.81,1.09-.25.38-.49.76-.7,1.16-.21.4-.41.81-.58,1.23-.17.42-.33.84-.46,1.28-.13.43-.24.87-.33,1.32-.09.44-.16.89-.2,1.34-.04.45-.07.9-.07,1.36Z"/>
    </g>
  </g>
  <g id="Home">
    <text class="cls-6" transform="translate(405.54 66.77)"><tspan x="0" y="0">Home</tspan></text>
  </g>
  <g id="GAMECOMPASS_Oben" data-name="GAMECOMPASS Oben">
    <text class="cls-5" transform="translate(114.78 70.39)"><tspan x="0" y="0">GAMECOMPASS</tspan></text>
  </g>
  <g id="Logo_oben" data-name="Logo oben">
    <g id="Logo_oben-2" data-name="Logo oben">
      <circle class="cls-11" cx="57.06" cy="60.78" r="23.64"/>
      <polygon class="cls-4" points="57.12 26.34 55 36.55 59.25 36.55 57.12 26.34"/>
      <polygon class="cls-4" points="57.18 94.97 59.3 84.76 55.06 84.76 57.18 94.97"/>
      <polygon class="cls-4" points="23.1 60.47 33.31 62.59 33.31 58.35 23.1 60.47"/>
      <polygon class="cls-4" points="90.91 60.47 80.7 58.35 80.7 62.59 90.91 60.47"/>
      <polygon class="cls-4" points="78.94 39.1 72.59 42.45 75.59 45.45 78.94 39.1"/>
      <polygon class="cls-4" points="35.71 38.9 38.77 45.39 41.9 42.53 35.71 38.9"/>
      <polygon class="cls-4" points="36.06 81.98 42.41 78.63 39.41 75.63 36.06 81.98"/>
      <polygon class="cls-4" points="78.2 82.08 74.85 75.73 71.85 78.73 78.2 82.08"/>
      <g>
        <path class="cls-2" d="M51.69,58.68s-.01.07-.04.1c-.03.03-.06.04-.1.04h-1.65c-.09,0-.18.02-.26.05-.08.03-.16.08-.22.15-.06.06-.11.14-.15.22-.03.08-.05.17-.05.26v1.65s-.01.07-.04.1-.06.04-.1.04h-1.65s-.07-.01-.1-.04c-.03-.03-.04-.06-.04-.1v-1.65c0-.09-.02-.18-.05-.26-.03-.08-.08-.16-.15-.22-.06-.06-.14-.11-.22-.15-.08-.03-.17-.05-.26-.05h-1.65s-.07-.01-.1-.04-.04-.06-.04-.1v-1.65s.01-.07.04-.1c.03-.03.06-.04.1-.04h1.65c.09,0,.18-.02.26-.05.08-.03.16-.08.22-.15.06-.06.11-.14.15-.22.03-.08.05-.17.05-.26v-1.65s.01-.07.04-.1.06-.04.1-.04h1.65s.07.01.1.04c.03.03.04.06.04.1v1.65c0,.09.02.18.05.26s.08.16.15.22c.06.06.14.11.22.15s.17.05.26.05h1.65s.07.01.1.04c.03.03.04.06.04.1v1.65ZM51.55,55.52h-.96v-.96c0-.1,0-.2-.03-.3-.02-.1-.05-.19-.09-.28-.04-.09-.08-.18-.14-.26-.06-.08-.12-.16-.19-.23-.07-.07-.15-.13-.23-.19-.08-.06-.17-.1-.26-.14s-.19-.07-.28-.09c-.1-.02-.2-.03-.29-.03h-1.65c-.1,0-.2,0-.29.03-.1.02-.19.05-.28.09-.09.04-.18.08-.26.14-.08.06-.16.12-.23.19s-.13.15-.19.23c-.06.08-.1.17-.14.26-.04.09-.07.19-.09.28-.02.1-.03.2-.03.3v.96h-.96c-.1,0-.2,0-.29.03-.1.02-.19.05-.28.09-.09.04-.18.08-.26.14-.08.06-.16.12-.23.19-.07.07-.13.15-.19.23-.06.08-.1.17-.14.26-.04.09-.07.19-.09.28-.02.1-.03.2-.03.3v1.65c0,.1,0,.2.03.3.02.1.05.19.09.28.04.09.08.18.14.26.06.08.12.16.19.23.07.07.15.13.23.19.08.06.17.1.26.14.09.04.19.07.28.09s.2.03.29.03h.96v.96c0,.1,0,.2.03.3.02.1.05.19.09.28s.08.18.14.26c.06.08.12.16.19.23.07.07.15.13.23.19.08.06.17.1.26.14.09.04.19.07.28.09.1.02.2.03.29.03h1.65c.1,0,.2,0,.29-.03s.19-.05.28-.09c.09-.04.18-.08.26-.14.08-.06.16-.12.23-.19.07-.07.13-.15.19-.23.06-.08.1-.17.14-.26.04-.09.07-.19.09-.28.02-.1.03-.2.03-.3v-.96h.96c.1,0,.2,0,.29-.03.1-.02.19-.05.28-.09s.18-.08.26-.14c.08-.06.16-.12.23-.19.07-.07.13-.15.19-.23.06-.08.1-.17.14-.26.04-.09.07-.19.09-.28s.03-.2.03-.3v-1.65c0-.1,0-.2-.03-.3-.02-.1-.05-.19-.09-.28s-.08-.18-.14-.26c-.06-.08-.12-.16-.19-.23-.07-.07-.15-.13-.23-.19-.08-.06-.17-.1-.26-.14s-.19-.07-.28-.09c-.1-.02-.2-.03-.29-.03Z"/>
        <path class="cls-2" d="M64.89,62.75c-.12,0-.24-.03-.35-.08-.11-.05-.21-.12-.29-.2-.08-.09-.15-.19-.19-.3-.04-.11-.07-.23-.07-.35s.03-.24.07-.35c.05-.11.11-.21.2-.3.09-.09.18-.15.3-.2.11-.05.23-.07.35-.07.12,0,.24.03.35.08.11.05.21.12.29.2.08.09.15.19.19.3.04.11.07.23.07.35,0,.12-.03.24-.07.35-.05.11-.11.21-.2.3-.09.09-.18.15-.3.2-.11.05-.23.07-.35.07h0ZM64.94,59.53c-.15,0-.3.01-.45.04-.15.03-.29.07-.43.12-.14.06-.27.12-.4.21-.13.08-.24.17-.35.28-.11.1-.2.22-.29.34-.09.12-.16.25-.22.39-.06.14-.11.28-.14.43-.03.15-.05.3-.05.45,0,.15,0,.3.04.45.03.15.07.29.12.43.05.14.12.27.2.4.08.13.17.24.28.35.1.11.22.21.34.29.12.09.25.16.39.22.14.06.28.11.43.14.15.03.29.05.44.05,3.02-.06,3.13-4.47.08-4.6Z"/>
        <path class="cls-2" d="M60.91,58.76c-.12,0-.23-.03-.34-.08-.11-.05-.2-.12-.28-.21-.08-.09-.14-.19-.19-.3-.04-.11-.06-.23-.06-.35,0-.12.03-.23.08-.34.05-.11.11-.21.2-.29.09-.08.18-.15.29-.19.11-.04.23-.07.35-.07.12,0,.24.02.35.07s.21.12.3.2c.09.09.15.19.2.3.04.11.07.23.06.36,0,.12-.03.24-.08.35-.05.11-.12.21-.21.29-.09.08-.19.15-.31.19-.12.04-.23.06-.36.05ZM60.98,55.55c-3.04.03-3.09,4.54-.05,4.58.15,0,.3-.02.44-.05s.29-.07.42-.13c.14-.06.27-.13.39-.21.12-.08.24-.18.34-.28.11-.11.2-.22.28-.34.08-.12.15-.25.21-.39.06-.14.1-.28.13-.42.03-.15.05-.29.05-.44s-.01-.3-.04-.44-.07-.29-.12-.43c-.06-.14-.12-.27-.2-.4-.08-.13-.17-.24-.28-.35s-.22-.2-.34-.29-.25-.16-.39-.22c-.14-.06-.28-.11-.42-.14-.15-.03-.29-.05-.44-.05Z"/>
        <path class="cls-2" d="M68.84,58.76c-.12,0-.24-.03-.35-.08-.11-.05-.21-.12-.29-.2s-.15-.19-.19-.3c-.04-.11-.06-.23-.06-.35,0-.12.03-.24.08-.35.05-.11.11-.21.2-.29.09-.08.19-.15.3-.19.11-.04.23-.07.35-.07.12,0,.24.03.35.08.11.05.21.12.29.2.08.09.15.19.19.3.04.11.06.23.06.35,0,.12-.03.24-.08.35-.05.11-.12.21-.2.29-.09.08-.19.15-.3.19-.11.04-.23.07-.35.07ZM68.9,55.55c-3.03.08-3.1,4.51-.03,4.58,3.01-.05,3.02-4.48.03-4.58Z"/>
        <path class="cls-2" d="M64.26,53.22c.13-.13.29-.21.47-.24.18-.03.36-.01.53.06.17.07.31.18.41.34.1.15.16.32.16.51,0,.12-.03.24-.08.35-.05.11-.12.21-.2.3-.09.09-.19.15-.3.2s-.23.08-.35.08c-.19,0-.36-.06-.51-.17-.15-.11-.26-.25-.33-.42-.07-.17-.08-.35-.05-.54.04-.18.12-.34.26-.47h0ZM64.88,56.19c.15,0,.3-.02.45-.04.15-.03.29-.07.43-.13.14-.06.27-.13.4-.21.12-.08.24-.18.35-.28.11-.11.2-.22.29-.35s.16-.26.21-.39.1-.28.13-.43c.03-.15.05-.3.05-.45s-.01-.3-.04-.45c-.03-.15-.07-.29-.12-.43-.06-.14-.12-.27-.2-.4-.08-.13-.17-.24-.28-.35-.1-.11-.22-.21-.34-.29-.12-.09-.25-.16-.39-.22-.14-.06-.28-.11-.43-.14s-.29-.05-.44-.06c-.15,0-.3.02-.45.04-.15.03-.29.07-.43.13-.14.06-.27.13-.4.21-.12.08-.24.18-.35.28-.11.11-.2.22-.29.35-.08.12-.16.26-.21.39-.06.14-.1.28-.13.43-.03.15-.05.3-.05.45,0,.15.01.3.04.45.03.15.07.29.12.43.06.14.12.27.2.4.08.13.17.24.28.35.1.11.22.21.34.29.12.09.25.16.39.22s.28.11.43.14.29.05.44.06Z"/>
        <path class="cls-2" d="M70.36,71.58c-4.15-1.25-6.32-5.68-10.52-6.22-3.82-.6-7.79-.38-10.78,2.46-1.29,1.24-2.7,2.29-4.26,3.17-9.56,4.91-4.87-14.6-2.94-17.63,3.25-6.29,6.87-4.57,12.65-3.24,1.93.58,4.52.15,6.73-.47,3.54-.96,6.96-1.73,9.44,1.77,3.13,3.34,7.48,22.5-.32,20.16h0ZM75.54,70.07c1.06-3.96.53-7.45-.59-12.26-1.12-4.85-4.3-11.54-10.58-10.27-3.02.45-6.62,2.06-9.51,1.23-1.65-.42-3.31-.76-4.95-1.12-9.36-2.05-11.89,10.59-12.27,18.19-.23,5.09,2.35,9.3,7.81,6.35,1.66-.93,3.17-2.06,4.54-3.37.9-.89,1.96-1.51,3.17-1.87,3.6-.91,7.82-.8,10.77,2.02,2.76,2.79,9.42,7.22,11.61,1.1Z"/>
      </g>
    </g>
  </g>
</svg>