<?xml version="1.0" encoding="UTF-8"?>
<svg id="Ebene_1" data-name="Ebene 1" xmlns="http://www.w3.org/2000/svg" viewBox="0 0 35.86 35.86">
  <defs>
    <style>
      .cls-1 {
        fill: #e0dfe5;
      }
    </style>
  </defs>
  <path class="cls-1" d="M25.75,21.52c.14-1.17.25-2.37.25-3.59s-.1-2.41-.25-3.59h6.05c.3,1.15.48,2.35.48,3.59s-.17,2.44-.48,3.59h-6.05ZM22.59,31.49c1.08-2,1.89-4.14,2.47-6.38h5.29c-1.73,2.97-4.47,5.25-7.76,6.38h0ZM22.13,21.52h-8.39c-.17-1.17-.29-2.37-.29-3.59s.12-2.41.29-3.59h8.39c.17,1.17.29,2.37.29,3.59s-.12,2.41-.29,3.59ZM17.93,32.21c-1.49-2.15-2.65-4.55-3.42-7.11h6.85c-.77,2.56-1.94,4.96-3.42,7.11ZM10.8,10.76h-5.29c1.72-2.97,4.47-5.26,7.76-6.39-1.08,2-1.89,4.15-2.47,6.39ZM5.51,25.1h5.29c.58,2.24,1.4,4.39,2.47,6.39-3.3-1.13-6.04-3.42-7.76-6.39h0ZM4.05,21.52c-.3-1.15-.47-2.35-.47-3.59s.17-2.44.47-3.59h6.05c-.14,1.17-.24,2.37-.24,3.59s.1,2.41.25,3.59h-6.06ZM17.93,3.65c1.5,2.15,2.66,4.55,3.42,7.11h-6.85c.76-2.56,1.93-4.96,3.42-7.11ZM30.34,10.76h-5.29c-.58-2.24-1.4-4.39-2.47-6.38,3.3,1.13,6.04,3.42,7.76,6.38ZM17.92,0C8.02,0,0,8.02,0,17.93s8.02,17.93,17.92,17.93,17.94-8.02,17.94-17.93S27.83,0,17.92,0Z"/>
</svg>