<?xml version="1.0" encoding="UTF-8"?>
<svg id="Ebene_1" data-name="Ebene 1" xmlns="http://www.w3.org/2000/svg" viewBox="0 0 383.04 387.63">
  <defs>
    <style>
      .cls-1 {
        fill: none;
        stroke: #e0dfe5;
        stroke-miterlimit: 10;
        stroke-width: 16.95px;
      }

      .cls-2 {
        fill: #f19115;
      }

      .cls-3 {
        fill: #e0dfe5;
      }
    </style>
  </defs>
  <circle class="cls-1" cx="191.84" cy="194.51" r="133.54"/>
  <polygon class="cls-3" points="192.19 0 180.22 57.66 204.17 57.66 192.19 0"/>
  <polygon class="cls-3" points="192.49 387.63 204.47 329.96 180.51 329.96 192.49 387.63"/>
  <polygon class="cls-3" points="0 192.78 57.66 204.76 57.66 180.81 0 192.78"/>
  <polygon class="cls-3" points="383.04 192.78 325.38 180.81 325.38 204.76 383.04 192.78"/>
  <polygon class="cls-3" points="315.4 72.08 279.55 90.99 296.49 107.93 315.4 72.08"/>
  <polygon class="cls-3" points="71.21 70.96 88.52 107.62 106.19 91.44 71.21 70.96"/>
  <polygon class="cls-3" points="73.23 314.25 109.09 295.33 92.15 278.39 73.23 314.25"/>
  <polygon class="cls-3" points="311.22 314.84 292.3 278.98 275.36 295.92 311.22 314.84"/>
  <g>
    <path class="cls-2" d="M161.48,182.66c0,.21-.08.4-.23.55-.15.15-.33.23-.55.23h-9.31c-.51,0-1.01.1-1.48.3-.48.2-.89.48-1.26.84-.36.36-.64.78-.84,1.26-.2.48-.3.97-.3,1.49v9.33c0,.21-.08.4-.23.55s-.33.23-.55.23h-9.31c-.21,0-.4-.08-.55-.23-.15-.15-.23-.33-.23-.55v-9.33c0-.52-.1-1.01-.3-1.49-.2-.48-.48-.9-.84-1.26-.36-.36-.78-.65-1.26-.84-.48-.2-.97-.3-1.48-.3h-9.31c-.21,0-.4-.08-.55-.23s-.23-.33-.23-.55v-9.33c0-.21.08-.4.23-.55.15-.15.33-.23.55-.23h9.31c.51,0,1.01-.1,1.48-.3.48-.2.89-.48,1.26-.84.36-.36.64-.78.84-1.26.2-.48.3-.97.3-1.49v-9.33c0-.21.08-.4.23-.55s.33-.23.55-.23h9.31c.21,0,.4.08.55.23.15.15.23.33.23.55v9.33c0,.52.1,1.01.3,1.49.2.48.48.9.84,1.26.36.36.78.65,1.26.84s.97.3,1.48.3h9.31c.21,0,.4.08.55.23.15.15.23.33.23.55v9.33ZM160.71,164.79h-5.43v-5.44c0-.56-.06-1.12-.17-1.67-.11-.55-.27-1.08-.49-1.6-.21-.52-.48-1.01-.79-1.48-.31-.47-.66-.9-1.06-1.29-.4-.4-.83-.75-1.29-1.06-.47-.31-.96-.58-1.47-.79s-1.05-.38-1.6-.49c-.55-.11-1.1-.17-1.66-.17h-9.31c-.56,0-1.11.06-1.66.17-.55.11-1.08.27-1.6.49-.52.22-1.01.48-1.47.79-.47.31-.9.67-1.29,1.06s-.75.83-1.06,1.29c-.31.47-.57.96-.79,1.48-.21.52-.38,1.05-.49,1.6-.11.55-.16,1.11-.17,1.67v5.44h-5.43c-.56,0-1.11.06-1.66.17-.55.11-1.08.27-1.6.49-.52.21-1.01.48-1.47.79-.47.31-.9.67-1.29,1.06-.4.4-.75.83-1.06,1.29-.31.47-.57.96-.79,1.48-.21.52-.38,1.05-.49,1.6-.11.55-.16,1.11-.17,1.67v9.33c0,.56.06,1.12.17,1.67.11.55.27,1.08.49,1.6.21.52.48,1.01.79,1.48.31.47.66.9,1.06,1.29.4.4.83.75,1.29,1.06.47.31.96.58,1.47.79.52.21,1.05.38,1.6.49s1.1.17,1.66.17h5.43v5.44c0,.56.06,1.12.17,1.67.11.55.27,1.08.49,1.6s.48,1.01.79,1.48c.31.47.66.9,1.06,1.29.4.4.83.75,1.29,1.06.47.31.96.58,1.47.79.52.22,1.05.38,1.6.49.55.11,1.1.17,1.66.17h9.31c.56,0,1.11-.06,1.66-.17s1.08-.27,1.6-.49c.52-.21,1.01-.48,1.47-.79.47-.31.9-.67,1.29-1.06.4-.4.75-.83,1.06-1.29.31-.47.57-.96.79-1.48.21-.52.38-1.05.49-1.6.11-.55.16-1.11.17-1.67v-5.44h5.43c.56,0,1.11-.06,1.66-.17.55-.11,1.08-.27,1.6-.49s1.01-.48,1.47-.79c.47-.31.9-.67,1.29-1.06.4-.4.75-.83,1.06-1.29.31-.47.57-.96.79-1.48.21-.52.38-1.05.49-1.6.11-.55.16-1.11.17-1.67v-9.33c0-.56-.06-1.12-.17-1.67-.11-.55-.27-1.08-.49-1.6s-.48-1.01-.79-1.48c-.31-.47-.66-.9-1.06-1.29-.4-.4-.83-.75-1.29-1.06-.47-.31-.96-.58-1.47-.79-.52-.21-1.05-.38-1.6-.49-.55-.11-1.1-.17-1.66-.17Z"/>
    <path class="cls-2" d="M236.03,205.67c-.68-.02-1.34-.16-1.97-.44-.63-.27-1.18-.66-1.65-1.15-.48-.49-.84-1.06-1.09-1.69-.25-.64-.38-1.3-.37-1.98s.14-1.34.41-1.97c.27-.63.64-1.19,1.13-1.67.49-.48,1.04-.85,1.68-1.12.63-.26,1.29-.39,1.97-.39.68.02,1.34.16,1.96.44.63.27,1.18.66,1.65,1.15.48.49.84,1.06,1.09,1.69.25.64.38,1.3.37,1.98,0,.68-.14,1.34-.41,1.97-.27.63-.64,1.19-1.13,1.67-.49.48-1.04.85-1.68,1.12-.63.26-1.29.39-1.97.4h0ZM236.34,187.48c-.85,0-1.69.06-2.52.22-.83.16-1.64.39-2.43.7-.79.31-1.54.7-2.25,1.16-.71.46-1.37.99-1.98,1.58-.61.59-1.15,1.24-1.63,1.93-.48.7-.89,1.44-1.23,2.22-.34.78-.6,1.58-.78,2.41-.18.83-.28,1.67-.29,2.52-.02.85.05,1.69.2,2.53.15.84.38,1.65.69,2.44.31.79.69,1.54,1.15,2.26.46.72.98,1.38,1.56,1.99.59.61,1.23,1.16,1.92,1.65.69.49,1.43.9,2.2,1.24.78.34,1.58.61,2.4.79.83.19,1.66.29,2.51.31,17.04-.31,17.69-25.22.47-25.96Z"/>
    <path class="cls-2" d="M213.58,183.09c-.67-.03-1.32-.19-1.93-.47-.61-.28-1.15-.67-1.61-1.17-.46-.49-.81-1.06-1.05-1.69-.24-.63-.35-1.29-.33-1.96.02-.68.16-1.32.43-1.94.27-.62.65-1.16,1.13-1.64.48-.47,1.04-.83,1.67-1.09.63-.25,1.28-.38,1.95-.38.69,0,1.36.14,2,.41s1.2.66,1.68,1.16c.48.5.85,1.07,1.1,1.72.25.65.37,1.32.35,2.01-.02.7-.17,1.36-.45,1.99-.29.63-.68,1.19-1.19,1.66-.51.47-1.09.83-1.74,1.07-.65.24-1.32.34-2.02.31ZM213.96,164.98c-17.17.15-17.46,25.64-.27,25.88.84,0,1.67-.09,2.5-.25s1.62-.41,2.4-.73c.78-.32,1.51-.72,2.21-1.18.7-.47,1.35-1,1.94-1.59.6-.59,1.13-1.24,1.6-1.94.47-.7.87-1.43,1.2-2.21.33-.78.58-1.58.75-2.4.17-.82.26-1.66.27-2.5,0-.84-.06-1.68-.22-2.5s-.39-1.63-.7-2.41c-.31-.78-.69-1.53-1.15-2.23-.46-.71-.98-1.36-1.56-1.97s-1.22-1.15-1.91-1.63-1.42-.89-2.19-1.23c-.77-.34-1.56-.6-2.38-.78-.82-.18-1.65-.29-2.49-.31Z"/>
    <path class="cls-2" d="M258.38,183.09c-.68-.02-1.33-.16-1.95-.44-.62-.28-1.17-.66-1.64-1.15s-.83-1.06-1.08-1.69c-.25-.64-.37-1.29-.35-1.98.01-.68.15-1.34.42-1.96.27-.63.65-1.18,1.14-1.65.49-.48,1.05-.84,1.68-1.09.63-.25,1.29-.38,1.97-.37.68.02,1.33.16,1.95.44.62.28,1.17.66,1.64,1.15.47.49.83,1.06,1.08,1.69.25.64.37,1.29.35,1.98-.01.68-.15,1.34-.42,1.96-.27.63-.65,1.18-1.14,1.65-.49.48-1.05.84-1.68,1.09-.63.25-1.29.38-1.97.37ZM258.69,164.98c-17.14.44-17.51,25.48-.18,25.88,17.03-.28,17.04-25.32.18-25.88Z"/>
    <path class="cls-2" d="M232.52,151.81c.75-.72,1.64-1.18,2.67-1.37,1.03-.19,2.02-.08,2.98.33.96.41,1.73,1.04,2.31,1.91.58.87.88,1.82.89,2.87-.03.69-.18,1.35-.45,1.98-.28.63-.66,1.19-1.14,1.68-.49.49-1.05.87-1.68,1.15s-1.29.43-1.98.46c-1.05-.02-2.02-.34-2.88-.94-.87-.6-1.5-1.4-1.89-2.38-.39-.98-.48-1.99-.27-3.03.21-1.04.69-1.93,1.44-2.67h0ZM235.98,168.6c.85,0,1.69-.09,2.52-.25.83-.17,1.64-.41,2.42-.74.78-.32,1.53-.72,2.23-1.19.71-.47,1.36-1,1.96-1.6.6-.6,1.14-1.25,1.62-1.95s.88-1.44,1.21-2.23c.33-.78.58-1.59.76-2.42.17-.83.27-1.67.28-2.52s-.06-1.69-.21-2.53c-.15-.83-.39-1.65-.7-2.44-.31-.79-.7-1.54-1.15-2.26-.46-.71-.98-1.38-1.57-1.99-.59-.61-1.23-1.16-1.92-1.65-.69-.49-1.43-.9-2.2-1.25-.78-.34-1.58-.61-2.4-.8s-1.66-.29-2.51-.32c-.85,0-1.69.09-2.52.25-.83.17-1.64.41-2.42.74-.78.32-1.53.72-2.23,1.19-.71.47-1.36,1-1.96,1.6-.6.6-1.14,1.25-1.62,1.95-.48.7-.88,1.44-1.21,2.23-.33.78-.58,1.59-.76,2.42-.17.83-.27,1.67-.28,2.52-.01.85.06,1.69.21,2.53.15.84.39,1.65.7,2.44.31.79.7,1.54,1.15,2.26.46.71.98,1.38,1.57,1.99.59.61,1.23,1.16,1.92,1.65.69.49,1.43.9,2.2,1.25.78.34,1.58.61,2.4.8s1.66.29,2.51.32Z"/>
    <path class="cls-2" d="M266.94,255.5c-23.44-7.06-35.69-32.07-59.44-35.13-21.56-3.4-43.98-2.17-60.88,13.87-7.26,6.99-15.27,12.96-24.04,17.91-53.98,27.72-27.5-82.45-16.58-99.56,18.36-35.56,38.83-25.81,71.46-18.31,10.92,3.27,25.54.82,38-2.66,19.98-5.45,39.32-9.78,53.29,10.01,17.68,18.84,42.26,127.1-1.81,113.87h0ZM296.19,247c5.99-22.4,3.01-42.1-3.36-69.24-6.34-27.38-24.27-65.18-59.77-57.98-17.07,2.56-37.39,11.64-53.7,6.98-9.32-2.36-18.71-4.31-27.97-6.32-52.86-11.58-67.15,59.81-69.28,102.72-1.32,28.73,13.29,52.53,44.12,35.86,9.35-5.27,17.9-11.62,25.65-19.06,5.08-5.03,11.05-8.55,17.9-10.57,20.32-5.12,44.17-4.52,60.81,11.39,15.59,15.75,53.2,40.79,65.59,6.23Z"/>
  </g>
</svg>