<?xml version="1.0" encoding="UTF-8"?>
<svg id="Ebene_1" data-name="Ebene 1" xmlns="http://www.w3.org/2000/svg" viewBox="0 0 144.52 144.56">
  <defs>
    <style>
      .cls-1 {
        fill: #0cc0df;
      }
    </style>
  </defs>
  <path class="cls-1" d="M84.27,118.75c-16.12,16.12-42.34,16.12-58.46,0s-16.12-42.34,0-58.46c8.07-8.05,18.65-12.09,29.23-12.09s21.18,4.04,29.23,12.09,12.11,18.19,12.11,29.23-4.3,21.42-12.11,29.23ZM82.14,0v13.73h38.99l-32.34,32.34c-21.58-16.78-52.86-15.3-72.69,4.52-21.46,21.46-21.46,56.41,0,77.87,10.74,10.74,24.83,16.1,38.93,16.1s28.21-5.36,38.93-16.1c10.4-10.4,16.12-24.23,16.12-38.93,0-12.39-4.12-24.13-11.6-33.75l32.32-32.32v38.99h13.73V0h-62.37Z"/>
</svg>