<?xml version="1.0" encoding="UTF-8"?>
<svg id="Suchen" xmlns="http://www.w3.org/2000/svg" viewBox="0 0 1920 115.62">
  <defs>
    <style>
      .cls-1 {
        fill: #fff;
      }

      .cls-2 {
        font-family: Verdana, Verdana;
        font-size: 18px;
      }

      .cls-2, .cls-3 {
        fill: #9e9e9e;
      }
    </style>
  </defs>
  <rect class="cls-1" x="1319.71" y="29.97" width="379.82" height="54.83" rx="19.82" ry="19.82"/>
  <path class="cls-3" d="M1351.33,63.18c-1.67,1.12-3.67,1.77-5.83,1.77-5.79,0-10.48-4.69-10.48-10.48s4.69-10.49,10.48-10.49,10.48,4.69,10.48,10.48c0,2.87-1.15,5.47-3.02,7.37-.49.5-1.04.96-1.63,1.35h0ZM1362.96,70.97l-7.76-7.45c2.3-2.46,3.57-5.66,3.57-9.05s-1.38-6.88-3.89-9.39c-2.51-2.51-5.84-3.89-9.39-3.89s-6.88,1.38-9.39,3.89c-2.51,2.51-3.89,5.84-3.89,9.39s1.38,6.88,3.89,9.39c2.51,2.51,5.84,3.89,9.39,3.89,2.67,0,5.22-.78,7.39-2.25l7.97,7.66c.28.27.66.42,1.05.42s.81-.17,1.09-.47c.58-.6.56-1.56-.04-2.14h0Z"/>
  <text class="cls-2" transform="translate(1375.81 63.04)"><tspan x="0" y="0">Suchen</tspan></text>
</svg>