<?xml version="1.0" encoding="UTF-8"?>
<svg id="Ebene_1" data-name="Ebene 1" xmlns="http://www.w3.org/2000/svg" viewBox="0 0 36.56 34.01">
  <defs>
    <style>
      .cls-1 {
        fill: #e0dfe5;
      }
    </style>
  </defs>
  <g>
    <path class="cls-1" d="M30.43,7.68l-2.33,10.09c-.06.28-.17.55-.33.79-.15.24-.34.46-.57.64s-.48.32-.75.41c-.27.09-.55.14-.84.14h-15.97l-2.84-12.07h23.63ZM8.78,21.94h16.84c.54,0,1.06-.09,1.57-.26.51-.18.97-.43,1.39-.77s.77-.73,1.06-1.18c.29-.46.49-.94.61-1.47l2.64-11.43c.04-.16.04-.33,0-.49s-.11-.31-.21-.44c-.1-.13-.23-.23-.38-.31-.15-.07-.31-.11-.48-.11H6.29l-.83-3.54c-.06-.25-.19-.45-.39-.61-.2-.16-.43-.24-.68-.24H1.1c-.15,0-.29.03-.42.08-.13.06-.25.13-.36.24-.1.1-.18.22-.24.36C.03,1.91,0,2.05,0,2.2c0,.15.03.29.08.42.06.13.13.25.24.36.1.1.22.18.36.24.13.06.27.08.42.08h2.42l3.94,16.74c-.34.15-.65.36-.93.62-.27.26-.5.56-.67.89-.17.34-.28.69-.33,1.06-.05.37-.04.74.04,1.11.08.37.21.71.41,1.04.2.32.44.6.73.84.29.24.62.42.97.55.35.13.72.19,1.1.19h20.84c.15,0,.29-.03.42-.08.13-.06.25-.13.36-.24s.18-.22.24-.36c.06-.13.08-.27.08-.42,0-.15-.03-.29-.08-.42-.06-.13-.13-.25-.24-.36-.1-.1-.22-.18-.36-.24-.13-.06-.27-.08-.42-.08H8.78c-.15,0-.29-.03-.42-.08-.13-.06-.25-.13-.36-.24-.1-.1-.18-.22-.24-.36-.06-.13-.08-.27-.08-.42,0-.15.03-.29.08-.42.06-.13.13-.25.24-.36.1-.1.22-.18.36-.24.13-.06.27-.08.42-.08Z"/>
    <path class="cls-1" d="M10.97,31.82c-.15,0-.29-.03-.42-.08-.13-.06-.25-.13-.36-.24s-.18-.22-.24-.36c-.06-.13-.08-.27-.08-.42,0-.15.03-.29.08-.42.06-.13.13-.25.24-.36s.22-.18.36-.24c.13-.06.27-.08.42-.08s.29.03.42.08c.13.06.25.13.36.24s.18.22.24.36c.06.13.08.27.08.42,0,.15-.03.29-.08.42-.06.13-.13.25-.24.36s-.22.18-.36.24c-.13.06-.27.08-.42.08ZM10.97,27.43c-.22,0-.43.02-.64.06-.21.04-.42.1-.62.19-.2.08-.39.18-.57.3-.18.12-.35.26-.5.41-.15.15-.29.32-.41.5-.12.18-.22.37-.3.57-.08.2-.15.41-.19.62s-.06.43-.06.64c0,.22.02.43.06.64.04.21.1.42.19.62.08.2.18.39.3.57.12.18.26.35.41.5.15.15.32.29.5.41.18.12.37.22.57.3.2.08.41.15.62.19.21.04.43.06.64.06s.43-.02.64-.06c.21-.04.42-.1.62-.19.2-.08.39-.18.57-.3.18-.12.35-.26.5-.41s.29-.32.41-.5c.12-.18.22-.37.3-.57.08-.2.15-.41.19-.62.04-.21.06-.43.06-.64,0-.22-.02-.43-.06-.64s-.1-.42-.19-.62c-.08-.2-.18-.39-.3-.57s-.26-.35-.41-.5c-.15-.15-.32-.29-.5-.41-.18-.12-.37-.22-.57-.3s-.41-.15-.62-.19c-.21-.04-.43-.06-.64-.06Z"/>
    <path class="cls-1" d="M24.13,31.82c-.15,0-.29-.03-.42-.08-.13-.06-.25-.13-.36-.24-.1-.1-.18-.22-.24-.36-.06-.13-.08-.27-.08-.42,0-.15.03-.29.08-.42.06-.13.13-.25.24-.36.1-.1.22-.18.36-.24.13-.06.27-.08.42-.08s.29.03.42.08c.13.06.25.13.36.24.1.1.18.22.24.36.06.13.08.27.08.42,0,.15-.03.29-.08.42-.06.13-.13.25-.24.36-.1.1-.22.18-.36.24-.13.06-.27.08-.42.08ZM24.13,27.43c-.22,0-.43.02-.64.06-.21.04-.42.1-.62.19s-.39.18-.57.3-.35.26-.5.41-.29.32-.41.5c-.12.18-.22.37-.3.57s-.15.41-.19.62-.06.43-.06.64c0,.22.02.43.06.64.04.21.1.42.19.62.08.2.18.39.3.57.12.18.26.35.41.5.15.15.32.29.5.41.18.12.37.22.57.3s.41.15.62.19c.21.04.43.06.64.06s.43-.02.64-.06c.21-.04.42-.1.62-.19.2-.08.39-.18.57-.3.18-.12.35-.26.5-.41s.29-.32.41-.5.22-.37.3-.57c.08-.2.15-.41.19-.62.04-.21.06-.43.06-.64,0-.22-.02-.43-.06-.64-.04-.21-.1-.42-.19-.62-.08-.2-.18-.39-.3-.57-.12-.18-.26-.35-.41-.5-.15-.15-.32-.29-.5-.41s-.37-.22-.57-.3c-.2-.08-.41-.15-.62-.19-.21-.04-.43-.06-.64-.06Z"/>
  </g>
  <circle class="cls-1" cx="30.43" cy="6.12" r="6.12"/>
</svg>