<?xml version="1.0" encoding="UTF-8"?>
<svg xmlns="http://www.w3.org/2000/svg" xmlns:xlink="http://www.w3.org/1999/xlink" viewBox="0 0 1920 3893.05">
  <defs>
    <style>
      .cls-1, .cls-2, .cls-3 {
        fill: #e6e5e9;
      }

      .cls-4 {
        stroke: #fff;
        stroke-linecap: round;
        stroke-linejoin: round;
        stroke-width: .2px;
      }

      .cls-4, .cls-5 {
        fill: none;
      }

      .cls-6, .cls-5, .cls-7, .cls-2, .cls-8, .cls-3 {
        opacity: .8;
      }

      .cls-6, .cls-2 {
        font-family: Verdana, Verdana;
        font-size: 14px;
      }

      .cls-9, .cls-10 {
        fill: #fff;
      }

      .cls-5 {
        stroke: #e6e5e9;
        stroke-miterlimit: 10;
        stroke-width: 2.07px;
      }

      .cls-10, .cls-11 {
        fill-rule: evenodd;
      }

      .cls-12 {
        fill: #1d1d1b;
        font-size: 25px;
      }

      .cls-12, .cls-8 {
        font-family: Verdana-Bold, Verdana;
        font-weight: 700;
      }

      .cls-13 {
        letter-spacing: -.02em;
      }

      .cls-11, .cls-14 {
        fill: #010101;
      }

      .cls-8 {
        fill: #e0dfe5;
        font-size: 20.71px;
      }

      .cls-15 {
        fill: #34353b;
      }

      .cls-16 {
        fill: #5c8791;
      }

      .cls-17 {
        fill: #fcc10c;
      }
    </style>
  </defs>
  <g id="Header">
    <image width="8000" height="4073" transform="scale(.24)" xlink:href="bilder/drachensymbol1.png"/>
  </g>
  <g id="oben_links_swipe" data-name="oben links swipe">
    <path class="cls-14" d="M145.39,1494.94c.78,0,1.54-.11,2.28-.32.75-.21,1.45-.53,2.11-.94.66-.41,1.25-.9,1.77-1.48.52-.58.95-1.21,1.3-1.91.34-.7.59-1.43.73-2.19.14-.76.17-1.53.1-2.31-.07-.77-.25-1.52-.54-2.25-.28-.72-.66-1.39-1.13-2.01l-25.77-33.72,25.78-33.72c.33-.44.62-.9.86-1.4.24-.49.43-1.01.57-1.54.14-.53.23-1.07.26-1.62.03-.55.01-1.09-.06-1.64-.07-.54-.2-1.08-.38-1.59-.18-.52-.41-1.02-.68-1.49-.28-.47-.6-.92-.96-1.33s-.76-.78-1.2-1.12c-.44-.33-.9-.62-1.39-.86s-1-.43-1.53-.57c-.53-.14-1.07-.23-1.62-.26s-1.09-.01-1.64.06-1.07.2-1.59.38c-.52.18-1.01.41-1.49.68-.47.28-.92.6-1.33.96s-.78.76-1.11,1.2l-29.6,38.79c-.28.36-.52.74-.73,1.14-.21.4-.39.82-.54,1.25s-.25.87-.33,1.32c-.07.45-.11.9-.11,1.35s.04.91.11,1.35c.07.45.18.89.33,1.32.15.43.32.85.54,1.25.21.4.46.78.73,1.14l29.6,38.79c.39.51.84.97,1.33,1.38.5.41,1.04.76,1.61,1.04.58.28,1.18.5,1.81.64.63.14,1.26.21,1.91.21Z"/>
  </g>
  <g id="oben_rechts_swipe" data-name="oben rechts swipe">
    <path class="cls-14" d="M1735.03,1493.75c-.78,0-1.54-.11-2.28-.32-.75-.21-1.45-.53-2.11-.94-.66-.41-1.25-.9-1.77-1.48-.52-.58-.95-1.21-1.3-1.91-.34-.7-.59-1.43-.73-2.19-.14-.76-.17-1.53-.1-2.31.07-.77.25-1.52.54-2.25.28-.72.66-1.39,1.13-2.01l25.77-33.72-25.78-33.72c-.33-.44-.62-.9-.86-1.4-.24-.49-.43-1.01-.57-1.54-.14-.53-.23-1.07-.26-1.62-.03-.55-.01-1.09.06-1.64.07-.54.2-1.08.38-1.59.18-.52.41-1.02.68-1.49.28-.47.6-.92.96-1.33s.76-.78,1.2-1.12c.44-.33.9-.62,1.39-.86s1-.43,1.53-.57c.53-.14,1.07-.23,1.62-.26s1.09-.01,1.64.06,1.07.2,1.59.38c.52.18,1.01.41,1.49.68.47.28.92.6,1.33.96s.78.76,1.11,1.2l29.6,38.79c.28.36.52.74.73,1.14.21.4.39.82.54,1.25s.25.87.33,1.32c.07.45.11.9.11,1.35s-.04.91-.11,1.35c-.07.45-.18.89-.33,1.32-.15.43-.32.85-.54,1.25-.21.4-.46.78-.73,1.14l-29.6,38.79c-.39.51-.84.97-1.33,1.38-.5.41-1.04.76-1.61,1.04-.58.28-1.18.5-1.81.64-.63.14-1.26.21-1.91.21Z"/>
  </g>
  <g id="genres_links_swipe" data-name="genres links swipe">
    <path class="cls-14" d="M191.93,1995.14c.5,0,.99-.07,1.47-.21.48-.14.93-.34,1.35-.6.42-.26.8-.58,1.14-.95.33-.37.61-.78.83-1.23.22-.45.38-.92.47-1.41.09-.49.11-.98.06-1.48-.05-.5-.16-.98-.35-1.44-.18-.46-.42-.89-.73-1.29l-16.54-21.64,16.54-21.64c.21-.28.4-.58.55-.9.15-.32.28-.65.37-.99.09-.34.15-.69.17-1.04.02-.35,0-.7-.04-1.05-.05-.35-.13-.69-.24-1.02-.11-.33-.26-.65-.44-.96-.18-.3-.38-.59-.62-.85s-.49-.5-.77-.72c-.28-.21-.58-.4-.89-.55s-.64-.28-.98-.37c-.34-.09-.69-.15-1.04-.17s-.7,0-1.05.04-.69.13-1.02.24c-.33.11-.65.26-.95.44-.3.18-.59.38-.85.62s-.5.49-.71.77l-18.99,24.89c-.18.23-.33.48-.47.73-.14.26-.25.52-.35.8s-.16.56-.21.85c-.05.29-.07.58-.07.87,0,.29.02.58.07.87.05.29.12.57.21.85.09.28.21.54.35.8.14.26.29.5.47.73l18.99,24.89c.25.33.54.62.86.89.32.26.66.49,1.04.67.37.18.76.32,1.16.41.4.09.81.14,1.22.14Z"/>
  </g>
  <g id="genres_rechts_swap" data-name="genres rechts swap">
    <path class="cls-14" d="M1684.75,1995.14c-.5,0-.99-.07-1.47-.21-.48-.14-.93-.34-1.35-.6-.42-.26-.8-.58-1.14-.95-.33-.37-.61-.78-.83-1.23-.22-.45-.38-.92-.47-1.41-.09-.49-.11-.98-.06-1.48.05-.5.16-.98.35-1.44.18-.46.42-.89.73-1.29l16.54-21.64-16.54-21.64c-.21-.28-.4-.58-.55-.9-.15-.32-.28-.65-.37-.99-.09-.34-.15-.69-.17-1.04-.02-.35,0-.7.04-1.05.05-.35.13-.69.24-1.02.11-.33.26-.65.44-.96.18-.3.38-.59.62-.85s.49-.5.77-.72c.28-.21.58-.4.89-.55s.64-.28.98-.37c.34-.09.69-.15,1.04-.17s.7,0,1.05.04.69.13,1.02.24c.33.11.65.26.95.44.3.18.59.38.85.62s.5.49.71.77l18.99,24.89c.18.23.33.48.47.73.14.26.25.52.35.8s.16.56.21.85c.05.29.07.58.07.87s-.02.58-.07.87c-.05.29-.12.57-.21.85-.09.28-.21.54-.35.8-.14.26-.29.5-.47.73l-18.99,24.89c-.25.33-.54.62-.86.89-.32.26-.66.49-1.04.67-.37.18-.76.32-1.16.41-.4.09-.81.14-1.22.14Z"/>
  </g>
  <g id="meistgekauft_links_swipe" data-name="meistgekauft links swipe">
    <path class="cls-14" d="M172.09,2446.48c.5,0,.99-.07,1.47-.21.48-.14.93-.34,1.35-.6.42-.26.8-.58,1.14-.95.33-.37.61-.78.83-1.23.22-.45.38-.92.47-1.41.09-.49.11-.98.06-1.48-.05-.5-.16-.98-.35-1.44-.18-.46-.42-.89-.73-1.29l-16.54-21.64,16.54-21.64c.21-.28.4-.58.55-.9.15-.32.28-.65.37-.99.09-.34.15-.69.17-1.04.02-.35,0-.7-.04-1.05-.05-.35-.13-.69-.24-1.02-.11-.33-.26-.65-.44-.96-.18-.3-.38-.59-.62-.85s-.49-.5-.77-.72c-.28-.21-.58-.4-.89-.55s-.64-.28-.98-.37c-.34-.09-.69-.15-1.04-.17s-.7,0-1.05.04-.69.13-1.02.24c-.33.11-.65.26-.95.44-.3.18-.59.38-.85.62s-.5.49-.71.77l-18.99,24.89c-.18.23-.33.48-.47.73-.14.26-.25.52-.35.8s-.16.56-.21.85c-.05.29-.07.58-.07.87,0,.29.02.58.07.87.05.29.12.57.21.85.09.28.21.54.35.8.14.26.29.5.47.73l18.99,24.89c.25.33.54.62.86.89.32.26.66.49,1.04.67.37.18.76.32,1.16.41.4.09.81.14,1.22.14Z"/>
  </g>
  <g id="meistgekauft_rechts_swipe" data-name="meistgekauft rechts swipe">
    <path class="cls-14" d="M1684.75,2446.48c-.5,0-.99-.07-1.47-.21-.48-.14-.93-.34-1.35-.6-.42-.26-.8-.58-1.14-.95-.33-.37-.61-.78-.83-1.23-.22-.45-.38-.92-.47-1.41-.09-.49-.11-.98-.06-1.48.05-.5.16-.98.35-1.44.18-.46.42-.89.73-1.29l16.54-21.64-16.54-21.64c-.21-.28-.4-.58-.55-.9-.15-.32-.28-.65-.37-.99-.09-.34-.15-.69-.17-1.04-.02-.35,0-.7.04-1.05.05-.35.13-.69.24-1.02.11-.33.26-.65.44-.96.18-.3.38-.59.62-.85s.49-.5.77-.72c.28-.21.58-.4.89-.55s.64-.28.98-.37c.34-.09.69-.15,1.04-.17s.7,0,1.05.04.69.13,1.02.24c.33.11.65.26.95.44.3.18.59.38.85.62s.5.49.71.77l18.99,24.89c.18.23.33.48.47.73.14.26.25.52.35.8s.16.56.21.85c.05.29.07.58.07.87s-.02.58-.07.87c-.05.29-.12.57-.21.85-.09.28-.21.54-.35.8-.14.26-.29.5-.47.73l-18.99,24.89c-.25.33-.54.62-.86.89-.32.26-.66.49-1.04.67-.37.18-.76.32-1.16.41-.4.09-.81.14-1.22.14Z"/>
  </g>
  <g id="meistgespielt_links_swipe" data-name="meistgespielt links swipe">
    <path class="cls-14" d="M191.93,2947.07c.5,0,.99-.07,1.47-.21.48-.14.93-.34,1.35-.6.42-.26.8-.58,1.14-.95.33-.37.61-.78.83-1.23.22-.45.38-.92.47-1.41.09-.49.11-.98.06-1.48-.05-.5-.16-.98-.35-1.44-.18-.46-.42-.89-.73-1.29l-16.54-21.64,16.54-21.64c.21-.28.4-.58.55-.9.15-.32.28-.65.37-.99.09-.34.15-.69.17-1.04.02-.35,0-.7-.04-1.05-.05-.35-.13-.69-.24-1.02-.11-.33-.26-.65-.44-.96-.18-.3-.38-.59-.62-.85s-.49-.5-.77-.72c-.28-.21-.58-.4-.89-.55s-.64-.28-.98-.37c-.34-.09-.69-.15-1.04-.17s-.7,0-1.05.04-.69.13-1.02.24c-.33.11-.65.26-.95.44-.3.18-.59.38-.85.62s-.5.49-.71.77l-18.99,24.89c-.18.23-.33.48-.47.73-.14.26-.25.52-.35.8s-.16.56-.21.85c-.05.29-.07.58-.07.87,0,.29.02.58.07.87.05.29.12.57.21.85.09.28.21.54.35.8.14.26.29.5.47.73l18.99,24.89c.25.33.54.62.86.89.32.26.66.49,1.04.67.37.18.76.32,1.16.41.4.09.81.14,1.22.14Z"/>
  </g>
  <g id="meistgespielt_rechts_swipe" data-name="meistgespielt rechts swipe">
    <path class="cls-14" d="M1684.75,2947.07c-.5,0-.99-.07-1.47-.21-.48-.14-.93-.34-1.35-.6-.42-.26-.8-.58-1.14-.95-.33-.37-.61-.78-.83-1.23-.22-.45-.38-.92-.47-1.41-.09-.49-.11-.98-.06-1.48.05-.5.16-.98.35-1.44.18-.46.42-.89.73-1.29l16.54-21.64-16.54-21.64c-.21-.28-.4-.58-.55-.9-.15-.32-.28-.65-.37-.99-.09-.34-.15-.69-.17-1.04-.02-.35,0-.7.04-1.05.05-.35.13-.69.24-1.02.11-.33.26-.65.44-.96.18-.3.38-.59.62-.85s.49-.5.77-.72c.28-.21.58-.4.89-.55s.64-.28.98-.37c.34-.09.69-.15,1.04-.17s.7,0,1.05.04.69.13,1.02.24c.33.11.65.26.95.44.3.18.59.38.85.62s.5.49.71.77l18.99,24.89c.18.23.33.48.47.73.14.26.25.52.35.8s.16.56.21.85c.05.29.07.58.07.87s-.02.58-.07.87c-.05.29-.12.57-.21.85-.09.28-.21.54-.35.8-.14.26-.29.5-.47.73l-18.99,24.89c-.25.33-.54.62-.86.89-.32.26-.66.49-1.04.67-.37.18-.76.32-1.16.41-.4.09-.81.14-1.22.14Z"/>
  </g>
  <g id="kostenlos_links_swipe" data-name="kostenlos links swipe">
    <path class="cls-14" d="M186.94,3500c.5,0,.99-.07,1.47-.21.48-.14.93-.34,1.35-.6.42-.26.8-.58,1.14-.95.33-.37.61-.78.83-1.23.22-.45.38-.92.47-1.41.09-.49.11-.98.06-1.48-.05-.5-.16-.98-.35-1.44-.18-.46-.42-.89-.73-1.29l-16.54-21.64,16.54-21.64c.21-.28.4-.58.55-.9.15-.32.28-.65.37-.99.09-.34.15-.69.17-1.04.02-.35,0-.7-.04-1.05-.05-.35-.13-.69-.24-1.02-.11-.33-.26-.65-.44-.96-.18-.3-.38-.59-.62-.85s-.49-.5-.77-.72c-.28-.21-.58-.4-.89-.55s-.64-.28-.98-.37c-.34-.09-.69-.15-1.04-.17s-.7,0-1.05.04-.69.13-1.02.24c-.33.11-.65.26-.95.44-.3.18-.59.38-.85.62s-.5.49-.71.77l-18.99,24.89c-.18.23-.33.48-.47.73-.14.26-.25.52-.35.8s-.16.56-.21.85c-.05.29-.07.58-.07.87,0,.29.02.58.07.87.05.29.12.57.21.85.09.28.21.54.35.8.14.26.29.5.47.73l18.99,24.89c.25.33.54.62.86.89.32.26.66.49,1.04.67.37.18.76.32,1.16.41.4.09.81.14,1.22.14Z"/>
  </g>
  <g id="kostenlos_rechts_swipe" data-name="kostenlos rechts swipe">
    <path class="cls-14" d="M1679.76,3500c-.5,0-.99-.07-1.47-.21-.48-.14-.93-.34-1.35-.6-.42-.26-.8-.58-1.14-.95-.33-.37-.61-.78-.83-1.23-.22-.45-.38-.92-.47-1.41-.09-.49-.11-.98-.06-1.48.05-.5.16-.98.35-1.44.18-.46.42-.89.73-1.29l16.54-21.64-16.54-21.64c-.21-.28-.4-.58-.55-.9-.15-.32-.28-.65-.37-.99-.09-.34-.15-.69-.17-1.04-.02-.35,0-.7.04-1.05.05-.35.13-.69.24-1.02.11-.33.26-.65.44-.96.18-.3.38-.59.62-.85s.49-.5.77-.72c.28-.21.58-.4.89-.55s.64-.28.98-.37c.34-.09.69-.15,1.04-.17s.7,0,1.05.04.69.13,1.02.24c.33.11.65.26.95.44.3.18.59.38.85.62s.5.49.71.77l18.99,24.89c.18.23.33.48.47.73.14.26.25.52.35.8s.16.56.21.85c.05.29.07.58.07.87s-.02.58-.07.87c-.05.29-.12.57-.21.85-.09.28-.21.54-.35.8-.14.26-.29.5-.47.73l-18.99,24.89c-.25.33-.54.62-.86.89-.32.26-.66.49-1.04.67-.37.18-.76.32-1.16.41-.4.09-.81.14-1.22.14Z"/>
  </g>
  <g id="Balken_unten" data-name="Balken unten">
    <rect class="cls-16" y="3777.43" width="1920" height="115.62"/>
  </g>
  <g id="Sprache_text_unten" data-name="Sprache text unten">
    <text class="cls-2" transform="translate(861.88 3864.16)"><tspan x="0" y="0">Sp</tspan><tspan class="cls-13" x="18.29" y="0">r</tspan><tspan x="24.02" y="0" xml:space="preserve">ache:  </tspan></text>
  </g>
  <g id="Deutsch_unten" data-name="Deutsch unten">
    <rect class="cls-15" x="931.24" y="3849.16" width="80.15" height="20.7" rx="7.16" ry="7.16"/>
    <text class="cls-6" transform="translate(935.27 3864.16)"><tspan class="cls-9" x="0" y="0">Deutsch </tspan><tspan class="cls-1" x="61.87" y="0"> </tspan></text>
  </g>
  <g id="Sprach_icon_unten" data-name="Sprach icon unten">
    <path class="cls-1" d="M1003.7,3860.63c.04-.37.08-.74.08-1.12s-.03-.75-.08-1.12h1.89c.09.36.15.73.15,1.12s-.05.76-.15,1.12h-1.89ZM1002.71,3863.75c.34-.63.59-1.3.77-2h1.65c-.54.93-1.4,1.64-2.43,2h0ZM1002.57,3860.63h-2.62c-.05-.37-.09-.74-.09-1.12s.04-.75.09-1.12h2.62c.05.37.09.74.09,1.12s-.04.75-.09,1.12ZM1001.26,3863.98c-.47-.67-.83-1.42-1.07-2.22h2.14c-.24.8-.61,1.55-1.07,2.22ZM999.03,3857.27h-1.65c.54-.93,1.4-1.65,2.43-2-.34.63-.59,1.3-.77,2ZM997.37,3861.76h1.65c.18.7.44,1.37.77,2-1.03-.35-1.89-1.07-2.43-2h0ZM996.92,3860.63c-.09-.36-.15-.73-.15-1.12s.05-.76.15-1.12h1.89c-.04.37-.08.74-.08,1.12s.03.75.08,1.12h-1.9ZM1001.26,3855.05c.47.67.83,1.42,1.07,2.22h-2.14c.24-.8.6-1.55,1.07-2.22ZM1005.14,3857.27h-1.65c-.18-.7-.44-1.37-.77-2,1.03.35,1.89,1.07,2.43,2ZM1001.25,3853.91c-3.1,0-5.61,2.51-5.61,5.61s2.51,5.61,5.61,5.61,5.61-2.51,5.61-5.61-2.51-5.61-5.61-5.61Z"/>
  </g>
  <g id="rechtecke">
    <rect className="cls-16" x="586.74" y="3256" width="315.92" height="415.88" rx="25.12" ry="25.12"/>
    <rect className="cls-16" x="586.54" y="2709.17" width="315.92" height="415.88" rx="25.12" ry="25.12"/>
    <rect className="cls-16" x="233.95" y="2709.17" width="315.92" height="415.88" rx="25.12" ry="25.12"/>
    <rect className="cls-16" x="219.85" y="1160.66" width="1442.72" height="574.28" rx="25.12" ry="25.12"/>
    <rect className="cls-16" x="958.56" y="2712.14" width="315.92" height="415.88" rx="25.12" ry="25.12"/>
    <rect className="cls-16" x="1317.2" y="2709.17" width="315.92" height="415.88" rx="25.12" ry="25.12"/>
    <rect className="cls-16" x="586.54" y="2206.05" width="315.92" height="415.88" rx="25.12" ry="25.12"/>
    <rect className="cls-16" x="233.95" y="2206.05" width="315.92" height="415.88" rx="25.12" ry="25.12"/>
    <rect className="cls-16" x="958.56" y="2209.02" width="315.92" height="415.88" rx="25.12" ry="25.12"/>
    <rect className="cls-16" x="1317.2" y="2206.05" width="315.92" height="415.88" rx="25.12" ry="25.12"/>
    <rect className="cls-16" x="965.36" y="3256.78" width="315.92" height="415.88" rx="25.12" ry="25.12"/>
    <rect className="cls-16" x="1317.2" y="3256.78" width="315.92" height="415.88" rx="25.12" ry="25.12"/>
    <rect className="cls-16" x="233.95" y="3256" width="315.92" height="415.88" rx="25.12" ry="25.12"/>
  </g>
  <g id="Beliebte_Genres" data-name="Beliebte Genres">
    <text className="cls-12" transform="translate(236.6 1800.49)"><tspan x="0" y="0">Beliebte Genres</tspan></text>
  </g>
  <g id="Meistgekauft">
    <text className="cls-12" transform="translate(240.77 2160.69)"><tspan x="0" y="0">Meistgekauft</tspan></text>
  </g>
  <g id="Meistgespielt">
    <text className="cls-12" transform="translate(239.27 2674.62)"><tspan x="0" y="0">Meistgespielt</tspan></text>
  </g>
  <g id="Kostenlose_Spiele" data-name="Kostenlose Spiele">
    <text className="cls-12" transform="translate(239.27 3209.21)"><tspan x="0" y="0">Kostenlose Spiele</tspan></text>
  </g>
  <g id="Horror">
    <image width="1024" height="1024" transform="translate(959.01 1812.16) scale(.31 .29)" xlink:href="bilder/horror.png"/>
  </g>
  <g id="Action">
    <image width="4267" height="4267" transform="translate(1306.79 1809.39) scale(.07)" xlink:href="bilder/action.png"/>
  </g>
  <g id="Rennspiele">
    <image width="1024" height="1024" transform="translate(598.36 1815.82) scale(.31 .29)" xlink:href="bilder/rennspiele.png"/>
  </g>
  <g id="Abenteuer">
    <image width="1536" height="1024" transform="translate(182.42 1816.13) scale(.28)" xlink:href="bilder/abenteuer.png"/>
  </g>
  <g id="Striche_nicht_nötig" data-name="Striche nicht nötig">
    <text className="cls-2" transform="translate(862.25 3830.84)"><tspan x="0" y="0" xml:space="preserve">Datenschutz | AGB | Impressum | Support |      |</tspan></text>
  </g>
  <g id="facebook">
    <path className="cls-1" d="M1191.85,3822.55h1.57v-2.37h-2c-2.63.11-3.18,1.58-3.22,3.14h0v1.64h-1.57v2.37h1.57v7.2h2.82v-7.2h2.02l.4-2.37h-2.42v-1.47c0-.52.35-.95.85-.95h0Z"/>
  </g>
  <g id="twitter">
    <g>
      <polygon className="cls-10" points="1223.26 3820.61 1227.46 3820.58 1237.67 3835.39 1233.43 3835.36 1223.26 3820.61"/>
      <polygon className="cls-4" points="1223.26 3820.61 1227.46 3820.58 1237.67 3835.39 1233.43 3835.36 1223.26 3820.61"/>
      <polygon className="cls-10" points="1235.91 3820.58 1237.22 3820.58 1224.52 3835.39 1223.26 3835.39 1235.91 3820.58"/>
      <polygon className="cls-4" points="1235.91 3820.58 1237.22 3820.58 1224.52 3835.39 1223.26 3835.39 1235.91 3820.58"/>
      <polygon className="cls-11" points="1224.99 3821.73 1226.94 3821.74 1235.95 3834.61 1234 3834.61 1224.99 3821.73"/>
      <path className="cls-11" d="M1225.14,3821.81l8.9,12.72h1.76s-8.91-12.71-8.91-12.71h-1.75ZM1224.99,3821.73h1.95s9.01,12.88,9.01,12.88h-1.95s-9.01-12.88-9.01-12.88Z"/>
    </g>
  </g>
  <g id="Datenschutz">
    <text className="cls-2" transform="translate(862.26 3830.84)"><tspan x="0" y="0">Datenschutz</tspan></text>
  </g>
  <g id="AGB">
    <text className="cls-2" transform="translate(965.56 3830.84)"><tspan x="0" y="0">AGB</tspan></text>
  </g>
  <g id="Impressum">
    <text className="cls-2" transform="translate(1011.78 3830.84)"><tspan x="0" y="0">Impressum</tspan></text>
  </g>
  <g id="Support_unten" data-name="Support unten">
    <text className="cls-2" transform="translate(1107.6 3830.88)"><tspan x="0" y="0">Support</tspan></text>
  </g>
  <g id="Logo_unten" data-name="Logo unten">
    <g>
      <circle className="cls-5" cx="627.75" cy="3826.32" r="16.32"/>
      <polygon className="cls-3" points="627.79 3802.55 626.33 3809.6 629.26 3809.6 627.79 3802.55"/>
      <polygon className="cls-3" points="627.16 3849.7 628.62 3842.65 625.69 3842.65 627.16 3849.7"/>
      <polygon className="cls-3" points="604.3 3826.11 611.35 3827.58 611.35 3824.65 604.3 3826.11"/>
      <polygon className="cls-3" points="651.12 3826.11 644.07 3824.65 644.07 3827.58 651.12 3826.11"/>
      <polygon className="cls-3" points="642.85 3811.36 638.47 3813.67 640.54 3815.74 642.85 3811.36"/>
      <polygon className="cls-3" points="613 3811.22 615.12 3815.7 617.28 3813.73 613 3811.22"/>
      <polygon className="cls-3" points="613.97 3842.88 618.35 3840.57 616.28 3838.5 613.97 3842.88"/>
      <polygon className="cls-3" points="642.11 3842.82 639.8 3838.44 637.73 3840.51 642.11 3842.82"/>
      <g className="cls-7">
        <path className="cls-17" d="M624.04,3824.88s0,.05-.03.07c-.02.02-.04.03-.07.03h-1.14c-.06,0-.12.01-.18.04-.06.02-.11.06-.15.1-.04.04-.08.1-.1.15-.02.06-.04.12-.04.18v1.14s0,.05-.03.07-.04.03-.07.03h-1.14s-.05,0-.07-.03c-.02-.02-.03-.04-.03-.07v-1.14c0-.06-.01-.12-.04-.18-.02-.06-.06-.11-.1-.15-.04-.04-.1-.08-.15-.1-.06-.02-.12-.04-.18-.04h-1.14s-.05,0-.07-.03-.03-.04-.03-.07v-1.14s0-.05.03-.07c.02-.02.04-.03.07-.03h1.14c.06,0,.12-.01.18-.04.06-.02.11-.06.15-.1.04-.04.08-.1.1-.15.02-.06.04-.12.04-.18v-1.14s0-.05.03-.07.04-.03.07-.03h1.14s.05,0,.07.03c.02.02.03.04.03.07v1.14c0,.06.01.12.04.18s.06.11.1.15c.04.04.1.08.15.1s.12.04.18.04h1.14s.05,0,.07.03c.02.02.03.04.03.07v1.14ZM623.94,3822.69h-.66v-.67c0-.07,0-.14-.02-.2-.01-.07-.03-.13-.06-.2-.03-.06-.06-.12-.1-.18-.04-.06-.08-.11-.13-.16-.05-.05-.1-.09-.16-.13-.06-.04-.12-.07-.18-.1s-.13-.05-.2-.06c-.07-.01-.13-.02-.2-.02h-1.14c-.07,0-.14,0-.2.02-.07.01-.13.03-.2.06-.06.03-.12.06-.18.1-.06.04-.11.08-.16.13s-.09.1-.13.16c-.04.06-.07.12-.1.18-.03.06-.05.13-.06.2-.01.07-.02.14-.02.2v.67h-.66c-.07,0-.14,0-.2.02-.07.01-.13.03-.2.06-.06.03-.12.06-.18.1-.06.04-.11.08-.16.13-.05.05-.09.1-.13.16-.04.06-.07.12-.1.18-.03.06-.05.13-.06.2-.01.07-.02.14-.02.2v1.14c0,.07,0,.14.02.2.01.07.03.13.06.2.03.06.06.12.1.18.04.06.08.11.13.16.05.05.1.09.16.13.06.04.12.07.18.1.06.03.13.05.2.06s.13.02.2.02h.66v.67c0,.07,0,.14.02.2.01.07.03.13.06.2s.06.12.1.18c.04.06.08.11.13.16.05.05.1.09.16.13.06.04.12.07.18.1.06.03.13.05.2.06.07.01.13.02.2.02h1.14c.07,0,.14,0,.2-.02s.13-.03.2-.06c.06-.03.12-.06.18-.1.06-.04.11-.08.16-.13.05-.05.09-.1.13-.16.04-.06.07-.12.1-.18.03-.06.05-.13.06-.2.01-.07.02-.14.02-.2v-.67h.66c.07,0,.14,0,.2-.02.07-.01.13-.03.2-.06s.12-.06.18-.1c.06-.04.11-.08.16-.13.05-.05.09-.1.13-.16.04-.06.07-.12.1-.18.03-.06.05-.13.06-.2s.02-.14.02-.2v-1.14c0-.07,0-.14-.02-.2-.01-.07-.03-.13-.06-.2s-.06-.12-.1-.18c-.04-.06-.08-.11-.13-.16-.05-.05-.1-.09-.16-.13-.06-.04-.12-.07-.18-.1s-.13-.05-.2-.06c-.07-.01-.13-.02-.2-.02Z"/>
        <path className="cls-17" d="M633.15,3827.69c-.08,0-.16-.02-.24-.05-.08-.03-.14-.08-.2-.14-.06-.06-.1-.13-.13-.21-.03-.08-.05-.16-.05-.24s.02-.16.05-.24c.03-.08.08-.15.14-.2.06-.06.13-.1.2-.14.08-.03.16-.05.24-.05.08,0,.16.02.24.05.08.03.14.08.2.14.06.06.1.13.13.21.03.08.05.16.05.24,0,.08-.02.16-.05.24-.03.08-.08.15-.14.2-.06.06-.13.1-.2.14-.08.03-.16.05-.24.05h0ZM633.19,3825.47c-.1,0-.21,0-.31.03-.1.02-.2.05-.3.09-.1.04-.19.09-.27.14-.09.06-.17.12-.24.19-.07.07-.14.15-.2.24-.06.09-.11.18-.15.27-.04.1-.07.19-.09.29-.02.1-.03.2-.04.31,0,.1,0,.21.02.31.02.1.05.2.08.3.04.1.08.19.14.28.06.09.12.17.19.24.07.07.15.14.23.2.08.06.17.11.27.15.09.04.19.07.29.1.1.02.2.04.31.04,2.08-.04,2.16-3.08.06-3.17Z"/>
        <path className="cls-17" d="M630.41,3824.93c-.08,0-.16-.02-.24-.06-.07-.03-.14-.08-.2-.14-.06-.06-.1-.13-.13-.21-.03-.08-.04-.16-.04-.24,0-.08.02-.16.05-.24.03-.08.08-.14.14-.2.06-.06.13-.1.2-.13.08-.03.16-.05.24-.05.08,0,.17.02.24.05s.15.08.21.14c.06.06.1.13.13.21.03.08.05.16.04.25,0,.08-.02.17-.06.24-.03.08-.08.15-.15.2-.06.06-.13.1-.21.13-.08.03-.16.04-.25.04ZM630.45,3822.72c-2.1.02-2.13,3.13-.03,3.16.1,0,.2-.01.31-.03s.2-.05.29-.09c.09-.04.19-.09.27-.14.09-.06.16-.12.24-.19.07-.07.14-.15.2-.24.06-.09.11-.18.15-.27.04-.09.07-.19.09-.29.02-.1.03-.2.03-.31s0-.2-.03-.31-.05-.2-.09-.3c-.04-.1-.08-.19-.14-.27-.06-.09-.12-.17-.19-.24s-.15-.14-.23-.2-.17-.11-.27-.15c-.09-.04-.19-.07-.29-.1-.1-.02-.2-.03-.3-.04Z"/>
        <path className="cls-17" d="M635.88,3824.93c-.08,0-.16-.02-.24-.05-.08-.03-.14-.08-.2-.14s-.1-.13-.13-.21c-.03-.08-.04-.16-.04-.24,0-.08.02-.16.05-.24.03-.08.08-.14.14-.2.06-.06.13-.1.21-.13.08-.03.16-.05.24-.05.08,0,.16.02.24.05.08.03.14.08.2.14.06.06.1.13.13.21.03.08.04.16.04.24,0,.08-.02.16-.05.24-.03.08-.08.14-.14.2-.06.06-.13.1-.21.13-.08.03-.16.05-.24.05ZM635.92,3822.72c-2.09.05-2.14,3.11-.02,3.16,2.08-.03,2.08-3.1.02-3.16Z"/>
        <path className="cls-17" d="M632.72,3821.11c.09-.09.2-.14.33-.17.13-.02.25,0,.36.04.12.05.21.13.28.23.07.11.11.22.11.35,0,.08-.02.17-.06.24-.03.08-.08.15-.14.21-.06.06-.13.11-.2.14s-.16.05-.24.06c-.13,0-.25-.04-.35-.11-.11-.07-.18-.17-.23-.29-.05-.12-.06-.24-.03-.37.03-.13.08-.24.18-.33h0ZM633.15,3823.16c.1,0,.21-.01.31-.03.1-.02.2-.05.3-.09.1-.04.19-.09.27-.15.09-.06.17-.12.24-.2.07-.07.14-.15.2-.24s.11-.18.15-.27.07-.19.09-.3c.02-.1.03-.2.03-.31s0-.21-.03-.31c-.02-.1-.05-.2-.09-.3-.04-.1-.09-.19-.14-.28-.06-.09-.12-.17-.19-.24-.07-.07-.15-.14-.23-.2-.08-.06-.17-.11-.27-.15-.09-.04-.19-.07-.29-.1s-.2-.04-.31-.04c-.1,0-.21.01-.31.03-.1.02-.2.05-.3.09-.1.04-.19.09-.27.15-.09.06-.17.12-.24.2-.07.07-.14.15-.2.24-.06.09-.11.18-.15.27-.04.1-.07.19-.09.3-.02.1-.03.2-.03.31,0,.1,0,.21.03.31.02.1.05.2.09.3.04.1.09.19.14.28.06.09.12.17.19.24.07.07.15.14.23.2.08.06.17.11.27.15s.19.07.29.1.2.04.31.04Z"/>
        <path className="cls-17" d="M636.93,3833.78c-2.87-.86-4.36-3.92-7.27-4.29-2.64-.42-5.38-.26-7.44,1.7-.89.85-1.87,1.58-2.94,2.19-6.6,3.39-3.36-10.08-2.03-12.17,2.24-4.35,4.75-3.15,8.74-2.24,1.34.4,3.12.1,4.65-.32,2.44-.67,4.81-1.19,6.51,1.22,2.16,2.3,5.17,15.54-.22,13.92h0ZM640.5,3832.74c.73-2.74.37-5.15-.41-8.46-.78-3.35-2.97-7.97-7.31-7.09-2.09.31-4.57,1.42-6.56.85-1.14-.29-2.29-.53-3.42-.77-6.46-1.41-8.21,7.31-8.47,12.56-.16,3.51,1.62,6.42,5.39,4.38,1.14-.64,2.19-1.42,3.14-2.33.62-.61,1.35-1.05,2.19-1.29,2.48-.63,5.4-.55,7.43,1.39,1.91,1.93,6.5,4.99,8.02.76Z"/>
      </g>
    </g>
  </g>
  <g id="GAMECOMPASS_unten" data-name="GAMECOMPASS unten">
    <text className="cls-8" transform="translate(659.6 3833.96)"><tspan x="0" y="0">GAMECOMPASS</tspan></text>
  </g>
</svg>